<svg xmlns="http://www.w3.org/2000/svg" viewBox="0 0 340 206"><defs><style>.cls-1{fill:#fcfcfc;}</style></defs><g id="Capa_2" data-name="Capa 2"><g id="Capa_1-2" data-name="Capa 1"><rect class="cls-1" width="340" height="206"/><path d="M121,21.7c0,1.6-15.2,17.2-21.1,21.8a88.75,88.75,0,0,1-11.5,7.4l-5.6,3-4.5-4L73.8,46,69,53.2C60.2,66.7,43.6,82.5,26.2,93.9c-5,3.4-7.8,5.8-7.5,6.7.8,1.9,1.5,1.7,11.6-3.3A145.54,145.54,0,0,0,66.8,71.1c5.1-5,9.4-9.2,9.6-9.2a18.51,18.51,0,0,1,2.1,4c1,2.2,2.3,4,3,4,2.1,0,19.9-11.1,26.7-16.7a93.92,93.92,0,0,0,11-10.5l4.1-5,2.5,3.1c2.4,3.2,10.9,10.1,12.3,10.1.4,0,1.1-.9,1.4-2,.6-1.8,1.4-1.3,7.8,4.6a147.59,147.59,0,0,0,28,19.9c6.3,3.5,7.1,3.6,9.4,2.4,3.2-1.7,6.9-6.5,7.8-10.2.4-1.5.9-2.7,1.2-2.7a33.63,33.63,0,0,1,4,2.4c2.9,2,4,2.3,6.3,1.5,3.5-1.3,10.7-7.4,13-11.1l1.7-2.8,4.5,5.3c5.4,6.2,10.7,10.1,17.5,12.7l5,1.9,2.9-3c1.5-1.6,3.2-2.9,3.7-2.9s3.9,2.8,7.5,6.2c11.3,10.5,34.3,24.2,53.5,31.8,4.9,1.9,6,2.1,6.8.9.6-.9.5-1.7-.4-2.2-.6-.4-6.1-3.7-12.2-7.3C288.7,85.1,268.1,69.6,257,58.6l-5.5-5.5-4.2,4-4.1,4.1-4.9-2.3c-3.1-1.5-8.3-5.9-14.9-12.6L213.3,36l-1.1,3.4c-2,5.3-6.7,11-10.7,12.9-3.5,1.7-4,1.7-7.2.2a24.23,24.23,0,0,0-3.8-1.6c-.3,0-1.4,1.9-2.6,4.2-2.5,5.1-6.7,9.8-8.7,9.8-2.8,0-15.1-7.2-23-13.6a144.66,144.66,0,0,1-14.4-13.5c-6.1-6.8-6.3-6.9-7.8-4.9s-1.7,1.9-3.8.4c-1.3-.9-3.7-4-5.3-7C121.9,21.1,121,20,121,21.7Z"/><path d="M44.9,97.9C37.2,102,34,108.4,34,119.9s-3.1,17.6-8.8,17.2c-2.5-.1-8.3,3.1-7.2,4.1.3.3,7.3,1,15.7,1.7,14.3,1.1,15.4,1,19.5-.8a23.21,23.21,0,0,0,6.7-4.6c2.9-3.1,2.7-3.2-2.4-.6-4,2.1-13.8,2.7-21.6,1.4l-3.5-.6,2.7-2.7c3.5-3.6,4.9-8.7,5-18.6,0-4.4.5-9.6,1.2-11.5,1.5-4.2,5.3-6,9.7-4.3,2.5.9,3.1.8,4.9-1.1,1.2-1.3,1.8-2.6,1.4-2.9C56,95.2,48.4,96,44.9,97.9Z"/><path d="M137.5,97.8c-5.3,2.5-11.9,9.5-14.5,15.3-2.3,5.4-2.9,15.5-1,20.3,2.6,6.9,9.9,11.3,16.6,10.1,3-.6,4.2-.1,9.8,3.9,7.2,5.1,17.2,9.9,22.8,10.9a15.89,15.89,0,0,0,14.7-4.9c1.7-2,3.1-4.5,3.1-5.5,0-2.3-.1-2.4-3.5-.8a3.79,3.79,0,0,0-2.5,3.8c0,3.7-1.7,5-6.6,5-5.2,0-16.1-5.4-22.8-11.3l-5-4.4,4.2-3.7c6.2-5.6,9.3-12.7,9.4-21.4.1-8.4-2.1-13.6-7.1-16.9C150.8,95.3,143.2,95.2,137.5,97.8Zm13,4.4c5.4,5.4,7,15.3,4,25.3-1.5,5.3-6.5,11.1-8.5,9.9-.6-.4-2.2.3-3.5,1.5-2.1,2-2.7,2.1-5.9,1-6.8-2.2-10.2-9.7-9.4-21,.9-11.9,7.1-20,15.5-20C146.5,98.9,147.7,99.4,150.5,102.2Z"/><path d="M273.3,103.9c-1.7.7-2.3,1.8-2.3,4,0,2.5-.4,3-2.3,3a6.63,6.63,0,0,0-4.2,2c-1.8,2-1.7,2,2,2h3.8l-.6,3.7c-.3,2.1-.9,7.7-1.3,12.5-.8,9.8,0,11.8,4.6,11.8,2.9,0,9-4.8,9-7.1,0-.7-1-.3-2.4,1s-3.2,2.1-4.3,1.9c-1.6-.3-1.8-1.3-1.7-7.6.1-4,.5-9.2.8-11.7l.7-4.5h5.3c4,0,5.7-.5,7.1-2,1.8-2,1.7-2-5.1-2h-7l.4-4c.2-2.2.3-4,.1-3.9A15.8,15.8,0,0,0,273.3,103.9Z"/><path d="M170,113.7c-2.2,2.2-4,4.5-4,5.3s1,.3,2.3-1.4c4.8-5.8,5.6-2.9,3.7,13.7-1.2,9.8-.6,11.6,3.7,11.6,1.6,0,4.5-2,8.7-6.3l6.4-6.2-.5,6.2c-.6,6.2-.6,6.3,2,6.3,2.9,0,9.7-6.3,9.7-8.9,0-1-.9-.5-2.6,1.6-1.4,1.8-3,3.3-3.6,3.3-1.2,0-.6-7.3,1.7-20.5.8-4.3,1.3-8.1,1.1-8.2s-1.5.1-2.8.8c-2.1.9-2.7,2-3.2,6.6a30.8,30.8,0,0,1-2.6,9.3c-2.7,5.3-8.3,11-10.9,11-1.9,0-2.1-.5-2.1-5.3.1-2.8.5-8.3,1-12.2C179.4,109.2,177,107.2,170,113.7Z"/><path d="M210,113.5c-2.2,2-4,4.3-4,5.2s.7.6,2.1-1.2c3.1-4,5.3-3.5,4.6,1.1-2.1,13.4-2.9,21.3-2.4,22.7a3.15,3.15,0,0,0,2.8,1.6c2.4,0,8.9-6.3,8.9-8.6,0-.8-1.2-.1-2.9,1.8s-3.2,3-3.6,2.6.1-6.3,1-13.1,1.5-13.2,1.2-14.1C216.7,109,214.3,109.6,210,113.5Z"/><path d="M228.9,113.8c-3.7,3.7-4.9,6.1-3.1,6.1.5,0,1.4-1.1,2-2.5s1.8-2.5,2.7-2.5c1.9,0,2,4.3.4,17.6-.6,5.2-.9,9.7-.6,10s1.4.1,2.5-.5c1.4-.7,2.1-2.5,2.6-6.7a41.16,41.16,0,0,1,2.5-9.8c2.1-4.8,8.3-10.6,11.3-10.6,2,0,2.1.3,1.3,8.2-.5,4.6-.9,10.8-.9,13.8-.1,4.9.1,5.5,2,5.8,2.6.4,9.4-5.7,9.4-8.4,0-1.4-.7-1-2.9,1.6-1.6,1.9-3.3,3.1-3.7,2.7s0-6.2.9-12.8c1.1-8.5,1.3-12.7.6-14-1.9-3.7-5.8-2.1-13.8,5.5l-5.3,5.1.5-4.4c.6-5-.5-8.1-3-8.1C233.5,109.9,231,111.6,228.9,113.8Z"/><path d="M76.4,114.1a24.68,24.68,0,0,0-11.1,18.5c-.7,7.6.6,10.3,4.9,10.3,2.6,0,4.3-1.2,9.2-6.1l5.9-6.1-.5,4.8c-.7,6.1-.2,7.4,2.7,7.4,2.4,0,9.5-7,9.5-9.3,0-.6-1.3.3-2.8,2.1s-3,3.2-3.4,3.2c-1.2,0-.9-6.7.7-16.5.8-5,1.5-9.6,1.5-10.3s-1.8-1.2-5.9-1.2C82.1,110.9,80.5,111.4,76.4,114.1Zm9,.4c3.8,1.4.9,11.8-5.2,18.5-7.3,8.1-11,6.3-9.2-4.6C72.8,117.3,78.5,111.8,85.4,114.5Z"/><path d="M302.5,112.3c-9.4,4.1-16.8,19.5-13.6,27.8,2.1,5.4,9.8,2.7,16.4-5.7l3.5-4.5-.6,6.5c-.5,6.5-.5,6.5,2.1,6.5,2.9,0,9.7-6.2,9.7-8.9,0-.9-1.1-.2-2.9,1.9-1.6,1.9-3.2,3.2-3.7,2.8-.5-.6,1.2-16.4,2.9-26.2C316.6,110.9,306,110.7,302.5,112.3Zm6.9,2.9c1.7,1.3,1.8,1.7.2,6.8-2.7,9.4-9.8,17.2-14.2,15.5-3.8-1.5.4-19.7,5.3-22.5A9,9,0,0,1,309.4,115.2Z"/><path d="M151,169.4c0,4.3.4,7.5,1,7.5s1-1.6,1-3.5c0-2.8.4-3.5,2-3.5a4,4,0,0,0,3-2c1.6-3-.4-6-4-6h-3Zm4.8-5.6c1.9,1.1,1.1,4.5-1.1,4.9-1.3.3-1.7-.3-1.7-2.7C153,162.8,153.6,162.3,155.8,163.8Z"/><path d="M160,169.4v7.5h3c1.7,0,3-.5,3-1s-.9-1-2-1c-1.8,0-2-.7-2-6.5,0-3.7-.4-6.5-1-6.5S160,165.1,160,169.4Z"/><path d="M167,166.6c0,7,.9,9.2,3.8,10,1.8.4,2.9.1,3.9-1.2,1.5-2.2,1.8-13.5.3-13.5-.6,0-1,2.9-1,6.6,0,6.2-.1,6.5-2.2,6.2s-2.3-.9-2.6-6.6C168.9,160.9,167,159.6,167,166.6Z"/><path d="M179,169.4c0,8.2,1.9,10.7,2.1,2.7l.1-4.7,1.5,4.7c.8,2.7,1.8,4.8,2.2,4.8s1.5-2.4,2.3-5.3l1.6-5.2.1,5.2c.2,8.3,2.1,6.3,2.1-2.2,0-9-2-10.3-4-2.8-1.9,7-2.7,7.2-4.1.9C181,159,179,160,179,169.4Z"/><path d="M194,169.4v7.5h3c3.5,0,5.6-3,4.1-5.8a6.12,6.12,0,0,1-.4-4,4.14,4.14,0,0,0-4.3-5.2C194.1,161.9,194,162.2,194,169.4Zm4.8-3.2c-.5,3.4-2.8,3.3-2.8-.2,0-2.3.4-2.9,1.6-2.4A2.42,2.42,0,0,1,198.8,166.2Zm1,6.1a3.2,3.2,0,0,1-3,3.6c-.5,0-.8-1.4-.8-3.1,0-2.4.4-3,1.7-2.7A2.94,2.94,0,0,1,199.8,172.3Z"/><path d="M204,169.4c0,4.3.4,7.5,1,7.5s1-3.2,1-7.5-.4-7.5-1-7.5S204,165.1,204,169.4Z"/><path d="M209,169.3c0,4.4.4,7.6,1,7.6s1-2.4,1.1-5.3v-5.2l2.2,5.2c3.2,7.7,4.7,6.9,4.7-2.2,0-4.3-.4-7.5-1-7.5s-1,2.6-1,5.7l-.1,5.8-2.3-5.5C210.1,160,209,160.3,209,169.3Z"/><path d="M222.1,163.3c-1.9,2.2-2.3,7.8-.9,10.6a4.31,4.31,0,0,0,4.3,2.5c2.7,0,3-.3,3.3-3.8.3-3.3.1-3.7-2-3.6-1.3,0-1.7.3-1,.6,1.4.5,1.6,4.9.3,5.8-1.6,1-4.1-2.5-4.1-5.8,0-4.3,1.3-6.1,4-5.4,1.4.3,2,.1,1.7-.6C227.1,161.8,223.5,161.6,222.1,163.3Z"/><path d="M236,163.8c-1.3,2.5-.5,4.6,2.6,6.6,3.5,2.3,3.1,4.5-.8,4.5-2.5,0-2.9.3-1.8,1,2.4,1.6,4.8,1.2,6-1a4.65,4.65,0,0,0-3-6.5,2.89,2.89,0,0,1-2-2.6c0-1.8,1-2.3,3.9-2,.7.2,1-.2.6-.8C240.5,161.2,237.2,161.7,236,163.8Z"/><path d="M246.1,163.3c-1.9,2.2-2.3,7.8-.9,10.6a4.31,4.31,0,0,0,4.3,2.5c3.6,0,5.8-3.5,5.1-8.3-.6-4.3-2.2-6.2-5.1-6.2A4.83,4.83,0,0,0,246.1,163.3Zm5.3,1.2c.9.8,1.6,3.1,1.6,4.9,0,2.8-2,6.5-3.5,6.5s-3.5-3.7-3.5-6.5,2-6.5,3.5-6.5A6.21,6.21,0,0,1,251.4,164.5Z"/><path d="M257,169.4v7.5h3c1.7,0,3-.5,3-1s-.9-1-2-1c-1.8,0-2-.7-2-6.5,0-3.7-.4-6.5-1-6.5S257,165.1,257,169.4Z"/><path d="M264,167.7c0,7.1,1.6,9.8,5.2,8.9,2.9-.8,3.8-3,3.8-10s-1.9-5.7-2.2,1.5c-.3,5.7-.5,6.3-2.5,6.6-2.2.3-2.3,0-2.3-6.2,0-3.7-.4-6.6-1-6.6S264,164.5,264,167.7Z"/><path d="M275.3,162.6c1.4.4,1.7,1.6,1.7,7.4,0,3.9.4,6.9,1,6.9s1-3,1-6.9c0-4.6.4-7.1,1.3-7.4.6-.3-.6-.5-2.8-.5S274.3,162.3,275.3,162.6Z"/><path d="M283,169.4c0,4.3.4,7.5,1,7.5s1-3.2,1-7.5-.4-7.5-1-7.5S283,165.1,283,169.4Z"/><path d="M288.6,164.1c-3.2,4.5-.9,12.8,3.4,12.8,2.5,0,5-3.7,5-7.5s-2.5-7.5-5-7.5A5.07,5.07,0,0,0,288.6,164.1Zm5.9,5.3c0,4.7-.2,5-2.5,5s-2.5-.5-2.8-3.9c-.4-5.2.3-6.8,3-6.4C294.2,164.4,294.5,165,294.5,169.4Z"/><path d="M299,169.4c0,4.3.4,7.5,1,7.5s1-2.6,1-5.8l.1-5.7,2.3,5.5c3.5,7.9,4.6,7.6,4.6-1.4,0-4.4-.4-7.6-1-7.6s-1,2.4-1.1,5.2v5.3l-2.2-5.2C300.5,159.5,299,160.3,299,169.4Z"/><path d="M312.2,163.1c-1.9,1.9-1.4,4.6,1.3,6.4,1.4.9,2.5,2.5,2.5,3.6,0,1.6-.5,1.9-2.5,1.5-1.6-.3-2.4,0-2.2.7.5,1.6,3.6,2,5.2.6,2.3-1.9,1.8-4.8-1-6.6-3.4-2.2-3.3-5.4.1-5.4,1.4,0,2.3-.4,1.9-1C316.7,161.5,313.7,161.6,312.2,163.1Z"/></g></g></svg>