<svg xmlns="http://www.w3.org/2000/svg" xmlns:xlink="http://www.w3.org/1999/xlink" viewBox="0 0 51.39 38.58"><defs><style>.cls-1{fill:#fff;}.cls-2{mix-blend-mode:multiply;}.cls-3{mask:url(#mask);}</style><mask id="mask" x="-6.92" y="-8.54" width="64.82" height="56" maskUnits="userSpaceOnUse"><rect class="cls-1" x="-1.92" y="-1.1" width="54.82" height="41.12" transform="translate(-4.75 8.79) rotate(-17.93)"/><path d="M12.62,7.56c-.21,0-.36.14-.52.06s-.11,0-.15.07c-.27.24.09.17-1.13.26l-.08-.18c.17-.16.16-.44.52-.49,0,.11,0,.11-.08.21a.64.64,0,0,0,.66,0c.16-.11.4-.08.56-.24s.22,0,.23.08S12.62,7.45,12.62,7.56Z"/><path d="M17.92,28.52l.24-.25-.31,0s0-.05,0-.05.24-.17.38-.09.26-.12.38,0c.3.31.09.55-.05.8a.24.24,0,0,1-.31.11c-.21-.08-.5-.07-.59-.3,0-.05-.12-.07-.19-.1C17.58,28.45,17.76,28.55,17.92,28.52Zm.35-.17c0,.09,0,.18.17.26C18.33,28.27,18.37,28.31,18.27,28.35Z"/><path d="M29.87,36.34l.27-.27c-.28.06-.48,0-.55-.17l.39-.26c.09.18.11.26.17.25a.4.4,0,0,1,.34.06c.08,0,.32,0,.36,0s.22.14.29.19c0,.36-.43.18-.5.45C30.65,36.61,30.69,36.63,29.87,36.34Zm.79-.22c-.14,0-.1,0-.14.07C30.65,36.21,30.62,36.22,30.66,36.12Z"/><path d="M25.41,28.86l.37.22.3-.14,0,.27.5.21a.26.26,0,0,1-.31.15,1.48,1.48,0,0,0-1.12,0l.11-.28C24.71,29.36,24.68,29.41,25.41,28.86Z"/><path d="M16.77,8.59a2.13,2.13,0,0,1,.9-.31c.07.27-.36.27-.44.5l.36.13.21-.16.12.19-.53.35C17.26,9,16.73,9,16.77,8.59Z"/><path d="M37.19,37.29l.5-.17c0-.23,0-.16-.18-.3.15,0,.33-.12.31-.27s-.22-.13-.39-.1l0-.26-.25.23c0,.19.17.37.09.48A.4.4,0,0,0,37.19,37.29Z"/><path d="M14.53,7.84c-.42-.08-.16-.24.16-.48s.17.14.31.17l.36.11c-.15.36-.48.41-.87.47Z"/><path d="M6.58,9.16C6.24,9,6.13,9,6.4,8.77a1.6,1.6,0,0,1,.39-.35.29.29,0,0,1,.2,0c.36.36.25.39.21.59C6.92,8.84,6.78,9,6.58,9.16Z"/><path d="M32.23,35.88c-.28.06-.28.06-.37-.22l-.2.13c.21.19.19.15.15.22-.64-.06-.45,0-.66-.2l.17-.33C31.94,35.38,31.94,35.38,32.23,35.88Z"/><path d="M31.78,36.84c.18-.23.18-.23.39-.27l.15-.38c.22.3,0,.6,0,.88s-.24.17-.42.2l.27-.42a.39.39,0,0,0-.45.22h-.5C31.28,36.84,31.28,36.84,31.78,36.84Z"/><path d="M12.19,5.37c.51-.23.78,0,1.08.26,0,0,0,.11-.07.14s-.15,0-.21-.07a1.37,1.37,0,0,0-.38-.1l.05.28-.47,0A.53.53,0,0,0,12.19,5.37Z"/><path d="M37.32,29.13c.09.29.06.27.12.18l.45.23c-.28.19.12.11.09.2a.4.4,0,0,1-.65,0l-.43,0C37.07,29.55,37,29.31,37.32,29.13Z"/><path d="M31.66,38.29l.18.08c-.2.16-.55.2-.5.47l-.4.11a1.27,1.27,0,0,1-.21-.17c.16-.16-.06-.38.25-.53l.06.26S31.76,38.31,31.66,38.29Z"/><path d="M41.2,31.32c-.28.06-.28.06-.58.41-.25,0-.13-.22-.17-.35l.3-.15c-.12-.07,0-.08-.48,0,0-.28,0-.3.28-.27C40.67,31,41,30.9,41.2,31.32Z"/><path d="M15.23,38c.15.08.34.13.35.21s-.12.26-.31.33a1.28,1.28,0,0,1-.43-.7,1.1,1.1,0,0,1,.32-.17C15.47,37.58,15.32,37.81,15.23,38Z"/><path d="M39.55,30.73c.49-.37.55-.39.28-.54,0,0,0-.09,0-.16.32.06.74,0,.7.39-.29.1-.58.28-.88.39Z"/><path d="M22.48,33.65c.94.12-.09-.13.19-.34s.47,0,.56,0c-.2.13-.2.12-.1.37s-.18.38-.48.22C22.58,33.88,22.56,33.78,22.48,33.65Z"/><path d="M39.8,33.56l.35.14.09-.3c.15,0,.1,0,.22.41-.3,0-.31.36-.64.27C39.69,34,39.7,33.78,39.8,33.56Z"/><path d="M31.4,38.23l0-.3c.11-.13.46-.26.34-.55.23,0,.25.09.31.16a1.56,1.56,0,0,1-.11.26,1.5,1.5,0,0,0-.19.25c0,.08,0,.18-.12.24Z"/><path d="M4.6,36c.22,0,.3.08.27.22l-.67,0c.31-.46.29-.35.14-.5a.88.88,0,0,1,.21-.18.3.3,0,0,1,.21-.05C4.93,35.64,4.73,35.85,4.6,36Z"/><path d="M14.41,4.94c.44.24.38.14.19.39-.08.1-.16.22-.32.17s-.23-.13-.19-.28,0-.15.32-.28Z"/><path d="M17.26,9.45c-.77.46,0,1-.94,1.07C16.82,10.21,16.32,9.72,17.26,9.45Z"/><path d="M37.63,27.53c.1.18-.05.39.31.39a1.18,1.18,0,0,1-.25.13,6.57,6.57,0,0,1-.77,0,.94.94,0,0,0,.42-.33A1.58,1.58,0,0,1,37.63,27.53Z"/><path d="M48.6,29.07c-.26.23-.31.22-.44,0s-.29-.29-.12-.4.17,0,.19,0S48.64,28.8,48.6,29.07Z"/><path d="M15.14,25.68c-.09.2-.21.28-.33.19-.27-.19-.55.24-.28-.19L14,25.51c.2-.25.37,0,.67.07Z"/><path d="M13.38,38.55l-.06-.38.33.09.19-.24c.05.22.37.28.3.56-.06,0-.11,0-.12,0s-.16-.12-.32,0A1.07,1.07,0,0,1,13.38,38.55Z"/><path d="M18.31,25.86c-.33,0-.6.08-.62-.05s.29-.29.46-.41C18.33,25.46,18.38,25.58,18.31,25.86Z"/><path d="M46.59,27.18l.54-.1-.23.63-.37,0C46.75,27.28,46.75,27.4,46.59,27.18Z"/><path d="M11.94,8.91l-.1.73a.7.7,0,0,1-.18-.11C11.21,9.1,11.35,9.13,11.94,8.91Z"/><path d="M38.51,30l-.15-.23.27-.1c0,.13-.11.26.13.26a1.84,1.84,0,0,1,.42.1.58.58,0,0,1-.62.12.58.58,0,0,0-.26,0C38.29,30.05,38.25,30.08,38.51,30Z"/><path d="M5,10.2l.12.23c-.25.11-.29-.1-.45-.09.52-1.17.19-.52.48-.39S5,10.11,5,10.2Z"/><path d="M14.67,3.85c0,.06.06.12.11.15s.15,0,.06.15.11.13.18.21a.56.56,0,0,1-.51.15C14.65,4.29,14.38,4.1,14.67,3.85Z"/><path d="M20.87,28.91l.51.08c-1.23.52-.94.43-1.19.35C20.65,29,20.64,29.33,20.87,28.91Z"/><path d="M1.5,32.94l0-.45L2,32.4v.32Z"/><path d="M22,26.53c.38.42.19.35.83.35l0,.07c-.27.13-.07.1-.74.14C22.2,26.9,21.93,26.8,22,26.53Z"/><path d="M.75,14a.27.27,0,0,1,.31-.2,2.26,2.26,0,0,0,.56-.14L1.48,14a2.25,2.25,0,0,1-.7.15Z"/><path d="M24,32.16l-.26.48c0-.29-.4-.27-.6-.39C23.16,32.19,23.05,32.21,24,32.16Z"/><path d="M2.73,10.22l-.2.32c-.09-.17-.4-.13-.43-.35C2.58,10,2.44,10,2.73,10.22Z"/><path d="M8.07,37.79l.38,0c-.06.32-.13.38-.51.48Z"/><path d="M21.57,33.45l-.82.55c-.11-.17.11-.32.21-.5Z"/><path d="M15.58,6.79c.2.17.08.13.47.2-.33.25-.49.28-.75.16,0-.13.36-.16.13-.38Z"/><path d="M11.33,17.06l-.17-.12c0-.21.28-.2.43-.27a.9.9,0,0,1,.33,0C11.93,16.74,12,16.67,11.33,17.06Z"/><path d="M38.61,35.06l.57-.42c.06.14.15.25,0,.38S38.92,35.16,38.61,35.06Z"/><path d="M3.54,35.2a.51.51,0,0,1,.54,0c.34.18.35.19.29.52C4.07,35.28,4.25,35.39,3.54,35.2Z"/><path d="M14.39,6.56c.29-.18.87-.66.79-.16A1.09,1.09,0,0,1,14.39,6.56Z"/><path d="M33.93,37.47l.24-.41a2.42,2.42,0,0,1,.27.32c0,.06-.11.16-.22.15Z"/><path d="M19.07,28.21,18.73,28c.41-.22.41-.22.6-.19Z"/><path d="M35.62,35.42c.36-.26.62-.15.62,0s-.08.12-.12.13A1.57,1.57,0,0,1,35.62,35.42Z"/><path d="M42.63,32.67l.65-.56a.51.51,0,0,1,.07.23C43.28,32.6,43,32.59,42.63,32.67Z"/><path d="M4.26,38.14l.43-.24c.22.08-.05.22,0,.33-.35,0-.15,0-.22.12a.5.5,0,0,1-.1.11C4.25,38.37,4.26,38.46,4.26,38.14Z"/><path d="M39.14,29.32c.33-.05.33-.05.48.24l-.53.11Z"/><path d="M1.89,8.82v.26l.5-.17c.16.09.07.18,0,.24l-.5,0C1.72,9,1.72,9,1.89,8.82Z"/><path d="M9.66,10.1l-.21.3c-.14,0-.07-.25-.15-.41C10,10.14,9.86,10.11,9.66,10.1Z"/><path d="M1.49,10.67c.21-.47.17-.51.46-.53C1.86,10.42,1.78,10.9,1.49,10.67Z"/><path d="M32.2,25.28c.11-.05,0-.31.33-.22a.47.47,0,0,1-.39.4c-.15,0-.29.09-.35-.05C31.89,25.26,32.06,25.35,32.2,25.28Z"/><path d="M21.93,29.62c.47-.4.51-.49.72-.37C22.4,29.45,21.93,29.88,21.93,29.62Z"/><path d="M40,27.47l-.26.05s-.1,0-.09-.06c.13-.48.15-.39.31-.47Z"/><path d="M20.4,9.84c.12.08.17.18,0,.32s-.2-.12-.34,0-.11-.05-.1-.08C20,9.84,20.47,9.87,20.4,9.84Z"/><path d="M28.56,36.73c.38-.08.41,0,.28.36C28.56,37.07,28.61,36.88,28.56,36.73Z"/><path d="M30.53,37.5c0-.27.12-.3.61-.2C31.17,37.49,31.07,37.46,30.53,37.5Z"/><path d="M22.46,37.69l.11-.57c.11.05.21.07.22.11S22.7,37.54,22.46,37.69Z"/><path d="M39.86,34.76c-.15-.46-.18-.33.11-.59.18.06-.07.22.09.29S40.07,34.68,39.86,34.76Z"/><path d="M16.59,7.56c.08.21,0,.32-.13.35s-.2,0-.21-.12S16.41,7.6,16.59,7.56Z"/><path d="M.78,14.1a.35.35,0,0,1-.43.08l0-.29C.8,14,.74,14,.78,14.1Z"/><path d="M36.73,10.84c-.07.25-.17.31-.52.35C36.26,11,36.37,10.89,36.73,10.84Z"/><path d="M6.63,28.89l.32.19-.2.22C6.49,29.17,6.49,29.17,6.63,28.89Z"/><path d="M7.15,16.72c-.27-.16-.27-.16-.17-.41C7.24,16.35,7.3,16.47,7.15,16.72Z"/><path d="M23.93,29.36l.11.34C23.69,30.07,23.61,29.45,23.93,29.36Z"/><path d="M30.15,23.46a1.13,1.13,0,0,1,.79.06c0,.07,0,0-.15.19l-.21-.2C30.25,23.59,30.37,23.59,30.15,23.46Z"/><path d="M24.9,28.54c-.18,0-.35.08-.39-.08s.09-.17.34-.23Z"/><path d="M16,9.82c-.53.31-.39.27-.57.15l.28-.28Z"/><path d="M46.43,27.05c.15-.32.16-.21-.07-.51.42-.14.39.3.15.53Z"/><path d="M38.35,27.43c-.21,0-.36-.1-.35-.26s0-.09.22-.13Z"/><path d="M20.4,9.85c.17-.52.09-.44.34-.49l0,.43C20.36,9.85,20.39,9.84,20.4,9.85Z"/><path d="M12.49,36.93l.42,0c0,.25,0,.27-.39.24Z"/><path d="M8.25,29a.33.33,0,0,1-.45,0l.31-.3Z"/><path d="M14.28,6.23c.38-.15.37-.12.37-.24s.28-.15.23,0-.23.32-.6.23Z"/><path d="M15,5.26c.25-.25.36-.24.57,0C15.33,5.37,15.18,5.28,15,5.26Z"/><path d="M25.17,28.71c.25-.21.42-.41.6-.2C25.33,28.89,25.21,28.65,25.17,28.71Z"/><path d="M39.22,30.76l-.16-.4c.32-.18.24.15.47.15Z"/><path d="M4.12,38.29c0,.14-.13.26,0,.34-.19.1-.19.1-.36,0C3.87,38.53,3.9,38.38,4.12,38.29Z"/><path d="M22.09,28l.33,0c-.07.23-.07.23-.39.26Z"/><path d="M23.16,31.33c.22.09.33.17.3.35l-.35.05Z"/><path d="M5.34,38.1l.25-.23c.26,0,.29.26-.06.38Z"/><path d="M29.93,37.23c.17-.12.28-.26.49-.2C30.27,37.3,30.21,37.33,29.93,37.23Z"/><path d="M31.15,36.77l-.18.1c-.08,0,.12-.23-.33-.26l.63-.21C31.39,36.45,31.06,36.61,31.15,36.77Z"/><path d="M45.47,26.66c.26-.27.18-.22.37-.23a2,2,0,0,1-.08.33C45.52,26.77,45.56,26.75,45.47,26.66Z"/><path d="M25.44,4.71l-.25.2c.06-.18,0-.34,0-.53Z"/><path d="M20,36.94l-.39-.06.23-.26C20.07,36.64,20,36.79,20,36.94Z"/><path d="M30.46,37.73l.29-.18.21.26C30.32,37.84,30.41,37.87,30.46,37.73Z"/><path d="M7.23,38.17c-.16,0-.16,0-.22-.35C7.1,37.83,7.37,37.77,7.23,38.17Z"/><path d="M16.61,27.43l.22-.09.23.29C16.87,27.67,16.8,27.64,16.61,27.43Z"/><path d="M14.28,6.23c-.06,0-.15,0-.17-.08S14,5.92,13.72,6c.44-.21.59-.13.56.26Z"/><path d="M19.77,37.25l-.16.21a.29.29,0,0,1-.27-.33Z"/><path d="M14.07,29l.44-.32C14.49,29.08,14.42,29.13,14.07,29Z"/><path d="M12.19,35.47a.33.33,0,0,1-.29.27.64.64,0,0,1-.17-.05C11.85,35.52,11.72,35.57,12.19,35.47Z"/><path d="M18.85,9.69c.33,0,.22.19.34.26s0,.13,0,.19S19.11,10.21,18.85,9.69Z"/><path d="M20.66,15.87c-.11-.07-.21-.1-.22-.16s.26-.33.3-.07C20.75,15.69,20.71,15.75,20.66,15.87Z"/><path d="M20.21,31.15c-.05.19-.27.27-.17.42s-.1.14-.26.13C19.89,31.51,19.87,31.3,20.21,31.15Z"/><path d="M20.81,11l-.18.33c-.11,0-.22-.07-.15-.18S20.61,10.91,20.81,11Z"/><path d="M12.33,29.91c-.06-.16-.11-.28.13-.38C12.56,29.74,12.56,29.74,12.33,29.91Z"/><path d="M20.08,11.86l.51-.11C20.79,12,20.24,12.08,20.08,11.86Z"/><path d="M36.75,25.07c-.35.14-.35.14-.41-.13C36.6,24.8,36.55,25.05,36.75,25.07Z"/><path d="M24,5.62l-.14.18-.4-.14C23.59,5.56,23.59,5.56,24,5.62Z"/><path d="M16.62,7.58c.26-.33.53-.24.5-.17S17.05,7.54,16.62,7.58Z"/><path d="M30.67,22.26c0,.24,0,.24-.23.36C30.38,22.47,30.48,22.37,30.67,22.26Z"/><path d="M19.4,10.54l-.4.17,0-.17c.21,0,.21-.1.18-.23S19.25,10.27,19.4,10.54Z"/><path d="M27.48,27.37c-.16.17,0,.34-.25.43C27.14,27.57,27.14,27.56,27.48,27.37Z"/><path d="M5.27,37.75,5,37.51a.23.23,0,0,1,.31,0C5.39,37.57,5.43,37.65,5.27,37.75Z"/><path d="M6.78,28.39l.48-.24C7.16,28.46,7,28.52,6.78,28.39Z"/><path d="M30.1,38.55h-.36c0-.17,0-.12.21-.24Z"/><path d="M11,33.93c.14-.16.26-.23.45-.15l-.14.22Z"/><path d="M2.7,14.55c0,.2-.23.32-.46,0Z"/><path d="M30.54,35.53l-.18-.28c.28,0,.18,0,.42.1Z"/><path d="M24.21,27.43c-.09.19-.09.19-.43.22,0-.26.28-.16.44-.22Z"/><path d="M23.09,37.84l.23-.27.2.32Z"/><path d="M25,29a.5.5,0,0,1,.16-.49C25.18,28.77,25.23,28.64,25,29Z"/><path d="M31,36.87c0,.1,0,.2-.2.29l0-.35C31,36.86,30.93,36.84,31,36.87Z"/><path d="M12.48,19.93c-.16,0-.33,0-.29-.15a.29.29,0,0,1,.18-.1C12.58,19.67,12.51,19.79,12.48,19.93Z"/><path d="M23.58,27.11l-.15.27C23.22,27.24,23.22,27.24,23.58,27.11Z"/><path d="M2.57,6.28c.21.21.21.22-.1.34C2.39,6.5,2.56,6.42,2.57,6.28Z"/><path d="M18,8.24c-.15,0-.26,0-.2-.17S18.17,8,18,8.24Z"/><path d="M1.81,13.39c.18-.22.18-.22.52-.21A.8.8,0,0,1,1.81,13.39Z"/><path d="M3.34,34.72,3.07,35C2.94,34.76,3,34.74,3.34,34.72Z"/><path d="M27.24,35.18c.07-.38,0-.38.32,0Z"/><path d="M22.39,33.11c-.05.2-.13.29-.31.32C22,33.24,22.18,33.21,22.39,33.11Z"/><path d="M19.81,11.12c-.08.08-.12.15-.16.15a.3.3,0,0,1-.19,0s0-.14.06-.14A1.13,1.13,0,0,1,19.81,11.12Z"/><path d="M31.35,24l0,.2C30.78,24.11,30.85,24.12,31.35,24Z"/><path d="M27.24,28.49c-.07-.14-.16,0-.31.05.16-.44.13-.4.38-.11Z"/><path d="M28.77,37.46c.07,0,0,0,.15.17-.05,0-.1.09-.14.09C28.56,37.71,28.55,37.49,28.77,37.46Z"/><path d="M18.63,37.45l-.32.26-.13-.29Z"/><path d="M13.09,10c0-.11.06-.19.21-.2s.22-.08.24.06Z"/><path d="M41,32.27l.44-.07C41.23,32.45,41.18,32.46,41,32.27Z"/><path d="M21.93,37.57c.1-.28.1-.28.39-.3C22.16,37.37,22.19,37.54,21.93,37.57Z"/><path d="M16.41,8.9c-.06-.12-.25-.2-.11-.42A.38.38,0,0,1,16.41,8.9Z"/><path d="M31.44,6.53c-.21.27-.21.27-.41.16Z"/><path d="M35.63,31.54l-.31.14c0-.08,0-.14,0-.18S35.52,31.42,35.63,31.54Z"/><path d="M2.5,31.87c-.15-.21-.15-.21.24-.33Z"/><path d="M27.44,34.69c-.17-.08-.24-.14-.12-.29C27.47,34.44,27.44,34.54,27.44,34.69Z"/><path d="M41.11,31.78c0,.11.09.14,0,.29s-.11,0-.12,0S41,31.84,41.11,31.78Z"/><path d="M32.51,23.22l-.43,0C32.28,23,32.28,23,32.51,23.22Z"/><path d="M20.52,27.29l.13-.27.22.18C20.82,27.28,20.88,27.26,20.52,27.29Z"/><path d="M21.24,28.14l.27-.2.08.14C21.42,28.17,21.06,28.4,21.24,28.14Z"/><path d="M10.19,27.06l-.34,0s0-.07,0-.07C10.09,26.85,10,26.89,10.19,27.06Z"/><path d="M14.89,28.32c.1.08.19.14.07.25S14.62,28.58,14.89,28.32Z"/><path d="M22.69,30.83c.11-.12.2-.25.44-.22C23,30.75,23,30.75,22.69,30.83Z"/><path d="M14.35,8.55V8.22l.31.07Z"/><path d="M33.86,6.68a.43.43,0,0,1,.45-.08C34.28,6.71,34.36,6.69,33.86,6.68Z"/><path d="M1.64,6.49c-.13-.12-.08-.25-.06-.38S1.68,6,1.64,6.49Z"/><path d="M17.48,10.15c.05.17,0,.25-.12.27s-.12-.09-.11-.1S17.38,10.23,17.48,10.15Z"/><path d="M16.46,3.6c.2-.16.28-.06.4,0C16.65,3.76,16.57,3.66,16.46,3.6Z"/><path d="M8.84,6.82l-.11.26C8.52,6.94,8.52,6.94,8.84,6.82Z"/><path d="M13.2,5.94c-.07.14-.18.16-.34.15A.28.28,0,0,1,13.2,5.94Z"/><path d="M30.51,24.5c-.34.36-.27.32-.37.3C30.25,24.57,30.26,24.43,30.51,24.5Z"/><path d="M12.81,7.78c-.1,0-.2-.08-.07-.19S13,7.65,12.81,7.78Z"/><path d="M26.07,28.86c-.2-.06-.14-.17-.08-.32C26.15,28.67,26.15,28.67,26.07,28.86Z"/><path d="M11,26.4l-.15-.19.4-.07Z"/><path d="M48.1,29.7c-.46.26-.38.25-.44.17s.27-.13.4-.22Z"/><path d="M8,9a.32.32,0,0,1,0-.07c0-.07.07-.18.21-.16s.06.08.06.08Z"/><path d="M16.68,6.2c-.07.17-.15.23-.27.2s0-.07-.05-.11Z"/><path d="M23.07,23.63l.3-.15C23.3,23.73,23.29,23.74,23.07,23.63Z"/><path d="M18,10.72l-.22.14-.07-.32Z"/><path d="M8.69,27.83l.05-.27.24.11C8.72,27.88,8.77,27.86,8.69,27.83Z"/><path d="M20.8,11.34c.42-.16.42-.16.4.07Z"/><path d="M30.34,23c-.14,0-.14,0,0-.23C30.49,22.76,30.48,22.71,30.34,23Z"/><path d="M12.07,11l-.37.25c.05-.13,0-.21.11-.28S11.94,11,12.07,11Z"/><path d="M5.53,38.25c.08.21.07.14,0,.26-.16-.1-.18,0,0-.26Z"/><path d="M7.54,29.23c-.27.2-.27.2-.35,0C7.3,29.22,7.41,29.13,7.54,29.23Z"/><path d="M2.2,13.78c-.18-.24-.18-.16,0-.3C2.34,13.54,2.34,13.49,2.2,13.78Z"/><path d="M33.22,5.58c-.18,0-.18,0-.27,0C33.11,5.49,33.11,5.49,33.22,5.58Z"/><path d="M48.18,31.82c.24.16.26.08,0,.3C48.13,32.1,48.14,32.15,48.18,31.82Z"/><path d="M3.25,27.91c.18.17.16.11,0,.23C3.11,28,3.14,28.08,3.25,27.91Z"/><path d="M4.56,8.75c-.16-.17-.16-.17.07-.31Z"/><path d="M11.39,29.1c-.32,0-.32,0-.27-.2C11.27,29,11.19,29,11.39,29.1Z"/><path d="M47.66,29.5c.06,0,.08,0,.08,0s.12.12,0,.21-.12,0-.12,0A1.52,1.52,0,0,1,47.66,29.5Z"/><path d="M19.28,37l-.44.2C19,36.93,19,36.93,19.28,37Z"/><path d="M17.25,9.86c.2.19.24.11,0,.32C17.16,10.14,17.17,10.2,17.25,9.86Z"/><path d="M32.07,22.12l-.27.25C31.78,22.22,31.78,22.22,32.07,22.12Z"/><path d="M17.7,25.64l-.33.05c0-.07,0-.13.08-.15S17.64,25.53,17.7,25.64Z"/><path d="M26.1,26.73c0,.18-.13.22-.25.2a.13.13,0,0,1,0-.1Z"/><path d="M29.6,38.53c-.16,0-.24-.1-.18-.26C29.61,38.3,29.63,38.38,29.6,38.53Z"/><path d="M5.34,36.63c-.22-.16-.22-.16,0-.3Z"/><path d="M1,29.51l0,0c0-.08-.1-.15,0-.23S1.19,29.37,1,29.51Z"/><path d="M7.37,21.88c-.07-.05-.13-.08-.15-.12s.06-.11.09-.11C7.56,21.65,7.42,21.78,7.37,21.88Z"/><path d="M5.83,9.15c-.26.3-.41.12-.37,0S5.73,9.15,5.83,9.15Z"/><path d="M29.35,36.58l.21-.23.08.27Z"/><path d="M35.76,29.17c.21,0,.13.17.19.26C35.73,29.4,35.73,29.4,35.76,29.17Z"/><path d="M34.07,30.29c-.09.07-.18.2-.31.05s.05-.09.09-.11S33.94,30.26,34.07,30.29Z"/><path d="M31.67,33.87c-.14.14-.06.13-.29.08C31.46,33.83,31.38,33.84,31.67,33.87Z"/><path d="M29.36,36.32c-.06.15-.2.22-.44.25C29.09,36.32,29.46,36.35,29.36,36.32Z"/><path d="M21.84,34.94l-.25-.06s.05-.08.08-.09S21.86,34.79,21.84,34.94Z"/><path d="M42.94,28.25,42.87,28c.07,0,.16,0,.17,0S43.09,28.21,42.94,28.25Z"/><path d="M14.41,4.94l0-.22.21,0c0,.13,0,.21-.19.26Z"/><path d="M14.37,6.44a.51.51,0,0,1-.44.14C13.91,6.48,13.84,6.52,14.37,6.44Z"/><path d="M16.15,6.46l-.41,0A.3.3,0,0,1,16.15,6.46Z"/><path d="M10.65,8.52c-.12,0-.27,0-.13-.25C10.75,8.51,10.74,8.46,10.65,8.52Z"/><path d="M10.94,8.86l.2-.14,0,.07C11.13,8.86,11.13,8.86,10.94,8.86Z"/><path d="M18.34,30.55c-.06.27-.21.16-.34.13Z"/><path d="M16.08,30.83c-.16,0-.08.06-.28-.07l.24-.14Z"/><path d="M12.92,8.91c.25-.14.12-.14.48-.05C13.34,9,13.43,8.94,12.92,8.91Z"/><path d="M41.68,28.91c-.24.07-.24.07-.37,0C41.55,28.76,41.66,28.93,41.68,28.91Z"/><path d="M19.68,7c0,.18-.09.21-.22.21S19.36,7.15,19.68,7Z"/><path d="M3.32,35.84l.36.11C3.54,36,3.39,36.06,3.32,35.84Z"/><path d="M25.92,26.61c-.11.16-.23.15-.34.05Z"/><path d="M41.68,28.91l.35-.06c-.18.21-.19.21-.35.06Z"/><path d="M23,27.77c-.12.06-.25.22-.45,0Z"/><path d="M29,6.44c-.23.31-.17.27-.28.23C29,6.36,28.91,6.39,29,6.44Z"/><path d="M-.21,17.3c0-.22.26-.2.23-.1S-.09,17.32-.21,17.3Z"/><path d="M4.07,18.24c0,.11.18.16,0,.28C4,18.46,4,18.38,4.07,18.24Z"/><path d="M13.52,16c-.24-.06-.22-.14,0-.3Z"/><path d="M4.94,38.27c0,.13-.11.19-.32.1C4.93,38.17,4.86,38.19,4.94,38.27Z"/><path d="M19.06,25.24a.24.24,0,0,1,.31-.15C19.39,25.18,19.45,25.15,19.06,25.24Z"/><path d="M5.73,30c-.12.19-.06.15-.21.13C5.6,29.93,5.55,30,5.73,30Z"/><path d="M20.39,11.5l.36,0C20.59,11.64,20.51,11.6,20.39,11.5Z"/><path d="M17.33,26.48c.08-.19.05-.15.19-.13C17.4,26.54,17.44,26.51,17.33,26.48Z"/><path d="M35.45,5.4l0,.29C35.3,5.56,35.3,5.56,35.45,5.4Z"/><path d="M14.54,11v-.24C14.72,10.79,14.72,10.79,14.54,11Z"/><path d="M50.56,24c-.17-.07-.13,0-.09-.16C50.68,23.91,50.67,23.87,50.56,24Z"/><path d="M44.15,32.83c.14-.35.09-.3.17-.14S44.31,32.82,44.15,32.83Z"/><path d="M40.81,26.93c.21-.09.21-.09.25.09Z"/><path d="M38.5,36.28l.14-.21s.09.07.09.1S38.7,36.35,38.5,36.28Z"/><path d="M24.22,27.43c0-.05-.11-.1-.09-.14s.14-.09.26,0C24.19,27.45,24.2,27.43,24.22,27.43Z"/><path d="M10.7,23.34l.25-.16C10.94,23.36,10.94,23.36,10.7,23.34Z"/><path d="M31.58,25.12h-.3C31.41,25,31.41,25,31.58,25.12Z"/><path d="M10.71,29.37c.15-.13.24-.13.35,0Z"/><path d="M5,25.07c0-.23.26-.19.24-.12S5.1,25.08,5,25.07Z"/><path d="M35.77,23.9c.16.07.15,0,.09.19C35.72,24.05,35.73,24.1,35.77,23.9Z"/><path d="M20.31,5.91c.3-.07.25-.08.24,0C20.26,6,20.3,6,20.31,5.91Z"/><path d="M12.63,17.17c-.25.16-.2.15-.27.08C12.6,17.07,12.54,17.08,12.63,17.17Z"/><path d="M18.84,37.26c.16,0,.16,0,.23.07C18.92,37.36,18.92,37.36,18.84,37.26Z"/><path d="M38.51,35.54c.12.14.12.14,0,.31Z"/><path d="M.24,24.77s.1.05.11.08-.06.08-.08.08a.19.19,0,0,1-.11-.05S.2,24.82.24,24.77Z"/><path d="M40.4,33.32c-.25-.08-.06-.16,0-.23S40.45,33,40.4,33.32Z"/><path d="M10.74,20.89c0-.09,0-.18.21-.25C10.79,21,10.84,20.91,10.74,20.89Z"/><path d="M14.58,19.24c-.14.1-.23.14-.3.06s0-.07,0-.1Z"/><path d="M30.46,37.73c-.05.14,0,.1-.29.14A.22.22,0,0,1,30.46,37.73Z"/><path d="M42.75,28.69l-.23-.06C42.72,28.52,42.72,28.52,42.75,28.69Z"/><path d="M20.88,34.64c.14-.06.23,0,.28.09C20.9,34.85,20.91,34.61,20.88,34.64Z"/><path d="M37.15,29.1c-.29.11-.24.12-.28,0C37.16,29,37.1,29,37.15,29.1Z"/><path d="M12.19,5.37h-.26a.24.24,0,0,1,.3-.1l0,.11Z"/><path d="M.33,9.71c-.25.06-.21.07-.21-.05C.36,9.65.33,9.63.33,9.71Z"/><path d="M5.86,37.13l.14.2C5.76,37.33,5.76,37.33,5.86,37.13Z"/><path d="M5.34,36,5.1,36s0-.05,0-.07S5.24,35.85,5.34,36Z"/><path d="M35.34,25.46l-.18-.09C35.31,25.33,35.31,25.33,35.34,25.46Z"/><path d="M2.9,36c0-.14.06-.2.17-.25S3.17,35.74,2.9,36Z"/><path d="M17.05,6.6c-.11.16-.2.16-.36.09Z"/><path d="M24.79,5.72c0-.09.08-.17.3-.15C24.8,5.8,24.87,5.78,24.79,5.72Z"/><path d="M18.93,9.31c.16.09.16.09-.05.2Z"/><path d="M9.66,12.74c.13-.09.21-.08.27,0C9.83,12.85,9.75,12.84,9.66,12.74Z"/><path d="M31.55,5.89c-.07-.16,0-.2.15-.24S31.79,5.66,31.55,5.89Z"/><path d="M12.06,20.13c.11.16.06.22-.14.29Z"/><path d="M.87,27.77l-.35.12A.31.31,0,0,1,.87,27.77Z"/><path d="M6.39,27.74c-.11.14-.06.12-.21.1C6.26,27.68,6.21,27.72,6.39,27.74Z"/><path d="M29,22.46c-.17,0-.18-.1-.07-.21S29.09,22.35,29,22.46Z"/><path d="M16,27.49c-.19,0-.19,0-.21-.16.13,0,.27,0,.2.17Z"/><path d="M31.4,22.68c.33-.12.27-.11.31-.06-.13.1-.06.08-.28.12Z"/><path d="M16.31,28.18,16,28.11C16.15,28,16.23,28,16.31,28.18Z"/><path d="M23.07,26.29c-.11-.15-.15-.24.11-.3Z"/><path d="M7,32.11c-.22.14-.15.12-.27.06C6.86,32,6.8,32.06,7,32.11Z"/><path d="M15.72,29.66v-.28C15.88,29.47,15.86,29.54,15.72,29.66Z"/><path d="M16.41,30.08c.13-.09.21-.09.25,0C16.53,30.17,16.46,30.16,16.41,30.08Z"/><path d="M32.41,25.49l-.2.13C32.19,25.5,32.19,25.5,32.41,25.49Z"/><path d="M23.65,38.06l.17-.19.06.06C23.87,38,23.81,38.08,23.65,38.06Z"/><path d="M29.79,35.28l-.21.2C29.55,35.33,29.55,35.33,29.79,35.28Z"/><path d="M49.72,28.2c.34-.11.28-.11.3-.05C49.69,28.26,49.75,28.25,49.72,28.2Z"/><path d="M16.26,8.15A.18.18,0,0,1,16.51,8C16.52,8.13,16.57,8.1,16.26,8.15Z"/><path d="M7.76,11.29c.16.08.16,0,.06.15C7.66,11.35,7.68,11.39,7.76,11.29Z"/><path d="M19.85,7.56a.34.34,0,0,1,.12.06s0,.06,0,.06S19.82,7.64,19.85,7.56Z"/><path d="M1.11,8.29c.09.07.1,0,0,.15C1,8.36,1.05,8.39,1.11,8.29Z"/><path d="M4.66,7.39l-.21.23C4.4,7.45,4.44,7.38,4.66,7.39Z"/><path d="M7.79,6.74c.11,0,.11,0,0,.12C7.73,6.81,7.75,6.84,7.79,6.74Z"/><path d="M2.44,33.27l-.2,0,0-.07.21,0Z"/><path d="M26.39,28.81l.3-.15C26.61,28.81,26.56,28.86,26.39,28.81Z"/><path d="M4.11,9.18c0-.2,0-.17.16-.16C4.19,9.22,4.22,9.19,4.11,9.18Z"/><path d="M19.4,23.58c-.07.22-.18.19-.37.18Z"/><path d="M22.93,26.61l0-.24C23.1,26.42,23.16,26.47,22.93,26.61Z"/><path d="M15.81,32.56c-.23-.06-.2,0-.16-.12C15.9,32.49,15.87,32.46,15.81,32.56Z"/><path d="M11.28,20.73c0,.08,0,.18-.26.22C11.22,20.65,11.16,20.69,11.28,20.73Z"/><path d="M29.37,36.32c0-.17,0-.17.28-.12C29.33,36.33,29.36,36.31,29.37,36.32Z"/><path d="M16.91,28.16c-.23.07-.18.07-.21,0C16.92,28.08,16.88,28.08,16.91,28.16Z"/><path d="M20.68,31.11c-.28.12-.23.12-.27.05C20.72,31,20.67,31,20.68,31.11Z"/><path d="M28.52,7.73c-.22.07-.18.07-.21,0C28.52,7.65,28.48,7.65,28.52,7.73Z"/><path d="M11.83,34.55c-.14-.09-.15,0,0-.21C11.93,34.42,11.94,34.36,11.83,34.55Z"/><path d="M25.88,25.18c0,.15-.1.16-.28.16C25.78,25.17,25.71,25.22,25.88,25.18Z"/><path d="M5.47,31.72c.26-.06.21-.06.23,0C5.44,31.8,5.48,31.81,5.47,31.72Z"/><path d="M.72,16.81c-.12.1-.07.1-.19,0C.63,16.75.58,16.74.72,16.81Z"/><path d="M2,34.66h.19v.05C2,34.75,2,34.74,2,34.66Z"/><path d="M12.23,14.2c.34-.11.28-.11.31,0C12.21,14.3,12.27,14.29,12.23,14.2Z"/><path d="M6.16,37.36c0-.23-.06-.18.06-.21C6.27,37.37,6.29,37.33,6.16,37.36Z"/><path d="M19.64,32.85c.35,0,.3,0,.27.1C19.57,32.93,19.62,33,19.64,32.85Z"/><path d="M28.17,12.36l.31-.13C28.45,12.37,28.38,12.41,28.17,12.36Z"/><path d="M31.58,23.22c-.11-.12-.1-.09-.07-.15.21.05.2,0,.06.14Z"/><path d="M3.38,35.3c0,.12,0,.12-.17.21Z"/><path d="M9.69,25.94c-.07-.07-.11-.14.09-.21Z"/><path d="M8,10.25c-.12.13-.06.12-.21.08C7.9,10.2,7.86,10.23,8,10.25Z"/><path d="M16.65,34.34c-.22-.06-.19,0-.16-.11C16.73,34.26,16.7,34.23,16.65,34.34Z"/><path d="M35.68,25c.24.11.22.08.17.14C35.58,25.11,35.61,25.14,35.68,25Z"/><path d="M19,33.48c.21-.07.17-.08.2,0C19,33.56,19,33.57,19,33.48Z"/><path d="M27.36,28.08c-.24-.07-.21,0-.17-.12C27.45,28,27.42,28,27.36,28.08Z"/><path d="M35.68,29c-.21.16-.16.15-.23.09C35.65,28.88,35.6,28.89,35.68,29Z"/><path d="M4.65,11.7c.1,0,.29-.15.23.07Z"/><path d="M16.23,27.44c-.27.22-.22.21-.25,0C16.21,27.42,16.18,27.39,16.23,27.44Z"/><path d="M32.25,6.43c.11.06.11,0,0,.15C32.19,6.55,32.19,6.59,32.25,6.43Z"/><path d="M32,5.36c-.1.13-.06.1-.16.09C31.91,5.32,31.87,5.36,32,5.36Z"/><path d="M18.09,9.53l.21-.07,0,0C18.09,9.62,18.13,9.61,18.09,9.53Z"/><path d="M24.43,2.35l-.29.06C24.38,2.16,24.4,2.38,24.43,2.35Z"/><path d="M27.1,1.44l-.21.1C26.85,1.4,26.94,1.43,27.1,1.44Z"/><path d="M24.43,2.35c.1,0,.21,0,.14.13S24.48,2.29,24.43,2.35Z"/><path d="M7.42,9c.16-.13.12-.12.19-.07C7.45,9.06,7.49,9.05,7.42,9Z"/><path d="M2.35,10.74c-.14,0-.12,0-.09-.12S2.35,10.59,2.35,10.74Z"/><path d="M7.42,9.34c-.07.11,0,.1-.2.07C7.28,9.33,7.22,9.34,7.42,9.34Z"/><path d="M9.55,12c-.09-.14-.09-.11,0-.15C9.62,12,9.63,11.93,9.55,12Z"/><path d="M2.47,14c-.07-.1-.06-.06,0-.14s.11,0,.09.15Z"/><path d="M16.7,9.24c-.11.14-.06.11-.18.08C16.61,9.2,16.57,9.22,16.7,9.24Z"/><path d="M2.29,13.9l-.1.09s-.07,0-.07,0a.28.28,0,0,1,.07-.09Z"/><path d="M13.73,10.22c-.08-.07-.09,0,0-.15C13.86,10.13,13.86,10.1,13.73,10.22Z"/><path d="M18.31,31.44c-.3,0-.25,0-.26,0C18.37,31.36,18.32,31.34,18.31,31.44Z"/><path d="M20.87,30.36l.2,0C20.9,30.55,20.92,30.39,20.87,30.36Z"/><path d="M34.14,37.78c-.15-.11-.13-.08-.08-.14S34.22,37.7,34.14,37.78Z"/><path d="M6.4,11.13c0-.09,0-.07.17-.09C6.58,11.1,6.61,11.08,6.4,11.13Z"/><path d="M18,7.29l-.11.09s-.06,0-.07-.08.05-.06.06-.06A.24.24,0,0,1,18,7.29Z"/><path d="M24,29s.06,0,.06,0v.16C24,29.19,24,29.22,24,29Z"/><path d="M4.68,11.52s-.06-.13.1-.17.13,0,0,.13S4.66,11.51,4.68,11.52Z"/><path d="M23.76,5.26a.8.8,0,0,1,0-.15h.06a.83.83,0,0,0,0,.15Z"/><path d="M19.58,37.66c-.21,0-.18,0-.15-.1C19.67,37.58,19.64,37.55,19.58,37.66Z"/><path d="M2.85,35.64c-.17.13-.1.12-.25.07C2.72,35.59,2.66,35.62,2.85,35.64Z"/><path d="M8,9.65c.27,0,.23,0,.21.08C8,9.74,8,9.76,8,9.65Z"/><path d="M48.87,30.28c-.24.08-.2.08-.23,0C48.87,30.19,48.83,30.19,48.87,30.28Z"/><path d="M19.8,36.53c-.12,0-.12,0,0-.13C19.86,36.45,19.84,36.42,19.8,36.53Z"/><path d="M48.43,33.4l.14.07s0,.06,0,.07C48.33,33.55,48.4,33.51,48.43,33.4Z"/><path d="M3.7,35c.18-.13.14-.12.2-.07C3.71,35.06,3.75,35.05,3.7,35Z"/><path d="M19.94,28.62c.21-.13.16-.12.22-.08C20,28.7,20,28.68,19.94,28.62Z"/><path d="M3,34.15a.31.31,0,0,1-.1.08s-.07,0-.07,0a.39.39,0,0,1,.08-.1Z"/><path d="M18.15,36.6,18,36.49l.06,0C18.26,36.56,18.23,36.54,18.15,36.6Z"/><path d="M13.58,30.08c.16-.11.12-.09.19,0C13.61,30.15,13.65,30.14,13.58,30.08Z"/><path d="M20.33,27.84c-.22.11-.17.11-.22.05C20.32,27.74,20.27,27.75,20.33,27.84Z"/><path d="M20.1,35.84c-.12-.12-.12-.09,0-.15C20.17,35.84,20.17,35.81,20.1,35.84Z"/><path d="M16.71,28.66c.11.06.11,0,0,.15C16.66,28.77,16.66,28.81,16.71,28.66Z"/><path d="M36,22.2c-.13-.06-.13,0,0-.14S36.05,22.05,36,22.2Z"/><path d="M14,29.17c.07.21.08.17,0,.2C13.9,29.16,13.89,29.2,14,29.17Z"/><path d="M35.9,22c.21-.14.17-.13.22-.06C35.9,22,35.94,22,35.9,22Z"/><path d="M11.31,29.81c.06,0,.11,0,.12.06a.12.12,0,0,1-.06.08s-.09,0-.1,0S11.29,29.87,11.31,29.81Z"/><path d="M15.54,28.4c-.24.09-.2.09-.23,0C15.54,28.31,15.49,28.31,15.54,28.4Z"/><path d="M6.4,31s-.07.11-.12.13-.08-.07,0-.11l.09,0Z"/><path d="M12.8,28.65l.15.18C12.81,28.81,12.81,28.81,12.8,28.65Z"/><path d="M31.06,22.68c.22-.1.17-.1.21,0C31,22.73,31.08,22.73,31.06,22.68Z"/><path d="M20.88,34.64c-.17,0-.21-.06-.1-.2C21,34.51,20.84,34.69,20.88,34.64Z"/><path d="M6.11,26.91A.61.61,0,0,1,6,26.84s0,0,0,0h.19Z"/><path d="M35.57,28.76c-.2,0-.17,0-.16,0C35.61,28.71,35.58,28.69,35.57,28.76Z"/><path d="M15.33,21.17c-.11.16-.08.13-.17.11C15.26,21.12,15.22,21.14,15.33,21.17Z"/><path d="M36.16,28.11a1.47,1.47,0,0,1,.16-.13l.06,0C36.32,28.13,36.25,28.11,36.16,28.11Z"/><path d="M5.34,20.05c-.12.15-.07.13-.22.11C5.2,20,5.15,20.07,5.34,20.05Z"/><path d="M33.33,8.57l-.12.07s-.06,0-.06,0S33.27,8.55,33.33,8.57Z"/><path d="M33.86,7.3l.23-.06c-.05.15-.14.12-.22.12S33.85,7.33,33.86,7.3Z"/><path d="M32.77,7c0,.08,0,.12-.1.16C32.71,6.92,32.68,7,32.77,7Z"/><path d="M15,12.72c-.2.12-.16.11-.22.06C14.93,12.63,14.88,12.64,15,12.72Z"/><path d="M32.85,6.57c.15-.08.12-.08.16,0C32.84,6.62,32.87,6.62,32.85,6.57Z"/><path d="M22.83,31.42l.12.07a.39.39,0,0,1-.1.08.1.1,0,0,1-.08,0S22.8,31.48,22.83,31.42Z"/><path d="M9.2,6c0,.17.05.14,0,.16C9.12,6,9.11,6,9.2,6Z"/><path d="M13.06,6.4c-.14.1-.09.09-.2,0C13,6.34,13,6.35,13.06,6.4Z"/><path d="M17,5.49c.08,0,.08,0,0,.09S16.92,5.56,17,5.49Z"/><path d="M10.92,8.09c.06.06.08,0-.06.13C10.79,8.17,10.78,8.2,10.92,8.09Z"/><path d="M8.08,9.13l.17.12C8.12,9.25,8.12,9.25,8.08,9.13Z"/><path d="M40.48,32.79c-.14.05-.1.06-.16,0C40.44,32.72,40.39,32.73,40.48,32.79Z"/><path d="M44,34.06c0,.14,0,.12-.1.11S43.9,34.06,44,34.06Z"/><path d="M30.46,35c-.13.09-.08.08-.2,0C30.32,34.92,30.26,34.93,30.46,35Z"/><path d="M39.64,26.87c-.09.09-.06.07-.15.05C39.59,26.83,39.55,26.85,39.64,26.87Z"/><path d="M9.6,29.45c-.21.07-.18.07-.19,0C9.62,29.41,9.59,29.41,9.6,29.45Z"/><path d="M41.94,28.46c.05,0,.07,0,0,.1S41.86,28.53,41.94,28.46Z"/><path d="M7.81,37.13c-.07.09,0,.07-.12.06S7.71,37.12,7.81,37.13Z"/><path d="M17.34,28.76c-.1.11-.05.1-.2.06C17.2,28.74,17.14,28.75,17.34,28.76Z"/><path d="M19.43,28.43c-.08.08-.05.07-.12.05S19.34,28.41,19.43,28.43Z"/><path d="M13.45,30.39c.09.13.09.1,0,.14C13.36,30.41,13.36,30.44,13.45,30.39Z"/><path d="M17.44,29.28c-.16-.1-.15-.05-.07-.18C17.49,29.14,17.48,29.09,17.44,29.28Z"/><path d="M20.94,28.09c.21-.07.26,0,.3.05S21.25,28.2,20.94,28.09Z"/><path d="M23.68,33.22c-.14.07-.09.08-.21,0C23.57,33.16,23.51,33.15,23.68,33.22Z"/><path d="M44,28.24l-.05,0a.54.54,0,0,1,.07-.13C44.1,28.11,44.12,28.09,44,28.24Z"/><path d="M31.7,34.2c-.2,0-.17.06-.18,0C31.73,34.15,31.69,34.14,31.7,34.2Z"/><path d="M27.33,30.21c0,.07,0,.06-.11.05S27.21,30.21,27.33,30.21Z"/><path d="M7.23,15.08c-.05,0-.09-.06-.09-.09s0-.06.05-.06l.11,0Z"/><path d="M14.82,27.94s-.05.07-.08.09-.08,0-.08,0,0-.06.05-.09Z"/><path d="M19.38,32.63c.15.14.14.09.06.17S19.34,32.77,19.38,32.63Z"/><path d="M7.64,28l-.1,0a.36.36,0,0,1,.07-.1s.08,0,.08,0Z"/><path d="M2.84,35.32c-.06-.17-.09-.12.05-.22S3,35.09,2.84,35.32Z"/><path d="M50.62,32.44c-.09,0-.08,0-.06-.08S50.62,32.34,50.62,32.44Z"/><path d="M8.2,35.41l.12,0s0,.07,0,.07C8.12,35.53,8.19,35.46,8.2,35.41Z"/><path d="M16.26,27.81c.11-.12.07-.09.15-.09S16.4,27.84,16.26,27.81Z"/><path d="M30.5,23.26h.16s0,.05,0,.05C30.44,23.34,30.48,23.34,30.5,23.26Z"/><path d="M18.49,32.06c-.24,0-.2.06-.21,0C18.53,32,18.48,32,18.49,32.06Z"/><path d="M5.35,36.11c.15.07.11,0,.08.12S5.32,36.22,5.35,36.11Z"/><path d="M26.67,20.43c.21,0,.18,0,.16.07C26.61,20.48,26.65,20.5,26.67,20.43Z"/><path d="M18.64,36.8c-.12.05-.08.06-.17,0C18.59,36.73,18.54,36.73,18.64,36.8Z"/><path d="M39.71,27.8l-.11,0a.21.21,0,0,1,0-.1s.08,0,.08,0A.22.22,0,0,1,39.71,27.8Z"/><path d="M6.87,30.14a.7.7,0,0,1-.1.08s-.07,0-.07,0l.07-.09Z"/><path d="M2.48,27.86c-.07.05-.09.1-.15,0s0,0,0,0Z"/><path d="M5.6,12.87c-.14-.09-.12,0-.06-.14S5.65,12.76,5.6,12.87Z"/><path d="M19.54,7.87c-.09.1,0,.1-.18.06C19.42,7.85,19.36,7.86,19.54,7.87Z"/><path d="M11.86,24c.08,0,.14,0,0,.15s-.08,0-.08,0A.33.33,0,0,1,11.86,24Z"/><path d="M31.8,21.55c.06.06.09,0-.09.15C31.64,21.64,31.63,21.67,31.8,21.55Z"/><path d="M36.66,19.91c.19,0,.16,0,.14.06C36.61,20,36.64,20,36.66,19.91Z"/><path d="M9.89,30.12c.13.1.11.06,0,.14S9.82,30.23,9.89,30.12Z"/><path d="M4.67,11.52l0,.18H4.5a.23.23,0,0,1,.06-.12S4.69,11.52,4.67,11.52Z"/><path d="M17.35,7.53c-.14,0-.14,0,0-.17S17.32,7.34,17.35,7.53Z"/><path d="M5.3,38.47c-.18.11-.12.09-.2,0C5.2,38.43,5.15,38.45,5.3,38.47Z"/><path d="M22.7,32.75c-.07.11,0,.1-.18.1C22.57,32.77,22.52,32.79,22.7,32.75Z"/><path d="M31.27,36.4c.28-.19.22-.18.28-.11C31.26,36.43,31.31,36.42,31.27,36.4Z"/><path d="M17.21,34.67l-.23,0C17.09,34.51,17.14,34.52,17.21,34.67Z"/><path d="M3.36,30.59c.08.15.09.12,0,.15C3.29,30.59,3.28,30.62,3.36,30.59Z"/><path d="M17.33,7.36s0,0,.08-.15l0,0a.39.39,0,0,1-.06.11S17.3,7.36,17.33,7.36Z"/><path d="M31.57,23.21c.08.16.13.13-.17.11,0-.06,0,0,.18-.1Z"/><path d="M8.37,38.27c.18-.06.15-.06.17,0C8.37,38.34,8.4,38.34,8.37,38.27Z"/><path d="M29.92,30.28c-.07.14-.05.12-.11.11S29.82,30.27,29.92,30.28Z"/><path d="M8.91,9.34v.13H8.85C8.83,9.32,8.85,9.35,8.91,9.34Z"/><path d="M32.35,21.32c.11.05.1,0,0,.11S32.32,21.42,32.35,21.32Z"/><g class="cls-2"><rect class="cls-1" x="-1.92" y="-1.1" width="54.82" height="41.12" transform="translate(-4.75 8.79) rotate(-17.93)"/><path d="M47,6.5c0-.19-.12-.33.14-.46.13.16.06.33,0,.49.61.08.29,0,.6.48,0,.07.09.12,0,.23s.07.12.12.2l-.42.63c-.29,0-.48,0-.5.06a.14.14,0,0,1-.21.06.38.38,0,0,0-.47.05s-.07,0-.1,0l-.07-.38c.24-.16.28,0,.42.15a4.67,4.67,0,0,1,.32-.4c.14-.17-.14-.22-.07-.36-1.62,0-1.05.07-1.16-.13s-.1-.09-.16-.13c.21-.5.52-.21.76-.46S46.41,6.35,47,6.5Zm-1.05.24c0,.21,0,.22.25.3Zm1.42,1a.43.43,0,0,0-.4.16Zm-.94-.62c.08,0,.07,0,0-.18C46.39,6.93,46.41,6.9,46.42,7.09Zm.91-.35c0-.08.05-.06-.21,0C47.12,6.76,47.08,6.75,47.33,6.74Z"/><path d="M44.18,4.44l.28,0a2.83,2.83,0,0,0,.3-.3c.32-.43-.12-.55.72.19,0,0,.13,0,.23,0l0-.4.3.48-.23.1.23.25c.06-.09.11-.26.31-.16-.14.56-.17.6-.63.74l.05-.21-.26,0c0-.22,0-.42-.13-.57-.44.26-.26.19-.71.24.12.13.31.17.21.37s-.4.12-.38.27-.07.08-.11.12-.19-.08-.08-.27A.69.69,0,0,0,44.18,4.44Z"/><path d="M45.33,5.47l.1-.15c.22.13.19.18-.21.39.29.34.26.19.1.69.28-.08.42,0,.5.14l-.25.16-1.19-.21,0-.26c.26-.17.21.24.48.09-.26,0-.14-.15-.07-.27l-.22-.28.3,0-.05-.41Z"/><path d="M37.74,1.81c-.54.24-.47.19-.45.27h.16c.06.09-.22.16-.07.27s0,.17,0,.27c-.24,0-.39.1-.4.29s-.1.11-.18.2c-.26-.28,0-.6-.07-.9.46,0,0-.08,1.16-1.23A1.38,1.38,0,0,1,37.74,1.81Z"/><path d="M50.53,33a1.53,1.53,0,0,0-.31-.26c-.19-.13-.22-.34-.42-.54l-.08.56c.05.1.31.09.19.27-.12,0-.29,0-.35.08s-.27.1-.46.1l0,.26Z"/><path d="M42.59,17c.78-.32.7-.34.38,0h.23c0,.06,0,.09,0,.09-.21.11-.43.2-.5.42,0,.06-.14.12-.22.18l.19.33c-.12.13-.23.13-.34,0-.14.08-.11.29-.38.28l.2-.3c-.2,0-.37-.07-.31-.27l.28-.33C42.55,17.2,42.62,17,42.59,17Zm-.06.31c0-.05,0-.07-.19.08C42.38,17.45,42.34,17.46,42.53,17.34Z"/><path d="M39.29,31.74c.3-.44.41.15.69-.17l-.24-.15.22-.13a2.3,2.3,0,0,1,.81.47c.1.12.11.11,0,.32C40.16,32.22,39.79,31.89,39.29,31.74Z"/><path d="M45.35,10.32c-.44.1-.3,0-.62.42L45,11c-.32.13-.44,0-.69-.05l.29-.24-.28-.28a1.73,1.73,0,0,0,.52-.3c.06-.07.25-.07.34-.1l.35-.47.21.05c-.05.17-.23.28-.38.51C45.28,10.14,45.34,10.23,45.35,10.32Z"/><path d="M40.7,14.48l.08-.18c-.23,0-.3-.12-.19-.32-.34.1-.39-.13-.54-.22s.05-.19.08-.3c.59,0,.79-.1.6.36a.76.76,0,0,1,.14.16c.2.38.2.45.14.53S40.74,14.49,40.7,14.48Z"/><path d="M36.78,5.26c-.15-.46.63-.72.82-.17a.34.34,0,0,1-.22.37A.5.5,0,0,1,36.78,5.26Z"/><path d="M44.79,2.44l.31-.31c.95-.31.91-.32.56.07l.52-.12c0,.14,0,.14-.81.48Z"/><path d="M41.84,16.11c.21.23-.06.37-.26.5.13,0,.35,0,.41.31,0,.12-.12.26-.3.33-.08-.15,0-.36-.34-.36-.14,0-.17-.26,0-.34C41.67,16.33,41.72,16.06,41.84,16.11Z"/><path d="M50.25,31.87c.55-.09.68.12.37.64-.18,0-.4.07-.49-.1A.47.47,0,0,1,50.25,31.87Z"/><path d="M44.91,3.3c.07,0,.14.08.2.06.4-.13.4-.13.52.11l.5-.07v.18a3.32,3.32,0,0,1-.55.09,1.2,1.2,0,0,1-.71,0,.25.25,0,0,1-.13-.2S44.94,3.31,44.91,3.3Z"/><path d="M45.82,1.21c-.16.26-.08.53-.45.71-.24-.35-.27-.45-.5-.47a.31.31,0,0,1-.3-.3C44.92,1.39,45.37,1.25,45.82,1.21Zm-.36.09c-.06.19-.07.14.06.18C45.61,1.32,45.61,1.37,45.46,1.3Z"/><path d="M50.33,17.6c-.34,0-.25.09-.42-.17l.55-.18L50,17l.27-.23C50.93,17.11,50.32,17.61,50.33,17.6Z"/><path d="M45.74,1.06,45.56.84c-.24,0-.17.08-.3-.32l.08,0c.29.33,1.08,0,.94.3,0,0-.17,0-.26.08S46,.8,45.74,1.06Z"/><path d="M51.65,30.9c.19,0,.32,0,.29.17s-.21.33-.61.4Z"/><path d="M43.85,8c.65-.15.44-.17.57.12,0,.11,0,.17-.13.17s-.42,0-.5-.22Z"/><path d="M41.38,9.83c-.43.2-.44.06-.62-.43,0,0,.06-.06.09-.09C41.2,9.37,41.08,9.71,41.38,9.83Z"/><path d="M45.86,31.62c.12-.47.12-.47-.11-.71l.35,0,.16-.26c0,.18.07.29-.07.42S46.23,31.51,45.86,31.62Z"/><path d="M42.87,16.71a1.68,1.68,0,0,1-.24.09c-.11-.16-.47,0-.53-.19s.24-.39.27,0C42.85,16.58,42.7,16.56,42.87,16.71Z"/><path d="M43.51,10.62c0-.29.37-.26.44-.46.09,0,.08-.07,0,.54C43.68,10.49,43.78,10.5,43.51,10.62Z"/><path d="M28.84,5.94c.08-.05,0,0,.45,0l.17.22C29.14,6.23,28.92,6.19,28.84,5.94Z"/><path d="M42.1,17.43c-.13,0-.18,0-.16-.12a.88.88,0,0,1,.57-.39s.06.08.08.11h0C42.13,17.16,42.09,17.44,42.1,17.43Z"/><path d="M37.52,2.68c.13.34,0,.46-.5.49Z"/><path d="M44.28,7.66l0-.15H44l.41-.25.36.35Z"/><path d="M41.68,22.88c.21-.06.38-.17.58,0-.09.08-.16.18-.25.2S41.78,23,41.68,22.88Z"/><path d="M44.15,8.74c.2-.1.17-.38.51-.39l.12.24Z"/><path d="M1.74,13.56c.31-.25.39.08.55.37C1.84,13.78,2,13.86,1.74,13.56Z"/><path d="M49.31,6.41c.06-.15-.33-.23,0-.43C49.65,6.19,49.65,6.28,49.31,6.41Z"/><path d="M8.57,16.78c-.31-.13-.32-.14-.23-.39C8.61,16.46,8.66,16.53,8.57,16.78Z"/><path d="M44,9.44l-.28-.2C44.56,9.12,44.66,9.06,44,9.44Z"/><path d="M13.43,18.8l-.14-.58a.51.51,0,0,1,.31.4S13.52,18.71,13.43,18.8Z"/><path d="M24.84,8.84a.75.75,0,0,1,.42-.55C25.19,8.47,25.19,8.68,24.84,8.84Z"/><path d="M49.06,33c0-.28.5-.39.41,0Z"/><path d="M28.2,13.72a.6.6,0,0,1,.24.54C28.22,14.16,28.18,14.06,28.2,13.72Z"/><path d="M39.56,14.69l-.47.26c0-.1,0-.15,0-.19a.63.63,0,0,0,.2-.28Z"/><path d="M44,11.66l-.19-.15c.21-.08.21-.32.5-.32Z"/><path d="M48.4,8l-.31.1L48,7.8C48.23,7.67,48.21,8,48.4,8Z"/><path d="M38.84,1.74c.4-.21.39.18.24.22S38.91,1.84,38.84,1.74Z"/><path d="M49.57,31.77c-.13-.28-.06-.37.32-.47C49.88,31.3,49.92,31.25,49.57,31.77Z"/><path d="M39.06,12.91l-.23.23c-.22,0-.13-.16-.2-.26C39.07,12.84,39,12.83,39.06,12.91Z"/><path d="M44.52,8.11l.38-.26c.11,0,.13.08,0,.16A.33.33,0,0,1,44.52,8.11Z"/><path d="M38.35,13.38c-.21-.1-.21-.1-.06-.33C38.53,13.18,38.53,13.18,38.35,13.38Z"/><path d="M43.85,8l-.06.07c-.24.14-.24,0-.3-.25C43.75,7.73,43.76,7.92,43.85,8Z"/><path d="M45.38,8.4c-.12-.05-.14-.14-.08-.27a.62.62,0,0,1,.38.24Z"/><path d="M44.58,6.9l.57-.12C44.7,7.22,44.63,6.82,44.58,6.9Z"/><path d="M32,13.92c-.51.17-.33.15-.16-.11,0-.06.07-.13.11-.2.25.06,0,.22,0,.32Z"/><path d="M33.11,13.08l-.43.14C32.8,13,32.83,12.94,33.11,13.08Z"/><path d="M45.89,9.89c0,.11.19.17,0,.28a.16.16,0,0,1-.15,0C45.69,10.07,45.63,10,45.89,9.89Z"/><path d="M37.78.92,37.72.61l.3.05C37.86,1,37.92.92,37.78.92Z"/><path d="M42.27,14.67l.15-.24c.12.05.22.09.12.21A.17.17,0,0,1,42.27,14.67Z"/><path d="M46.21,8.88c.09-.12.07-.32.38-.36A.55.55,0,0,1,46.21,8.88Z"/><path d="M44.92,3.31c-.07-.18.16-.25.23-.41.12.14.12.23,0,.3A1.39,1.39,0,0,0,44.92,3.31Z"/><path d="M47.1,16l.32-.3C47.48,15.92,47.48,15.92,47.1,16Z"/><path d="M40.91,18.62l0-.07c.46,0,.36,0,.4.11C41.2,18.82,41,18.65,40.91,18.62Z"/><path d="M41.48,14.83c.2-.21.46.12.18.26A1.86,1.86,0,0,1,41.48,14.83Z"/><path d="M40.93,16.65c-.39,0-.13-.25,0-.22S41,16.56,40.93,16.65Z"/><path d="M32,13.93c.24-.21.15-.16.38-.11-.15.18,0,.17-.38.1Z"/><path d="M41.82,16.1c0-.14,0-.25.26-.32,0,.14,0,.27-.24.33Z"/><path d="M8.78,6.79c.05-.19.05-.19.24-.26C9.05,6.68,8.94,6.73,8.78,6.79Z"/><path d="M42.18,13.52c-.06-.26-.06-.26.19-.33C42.42,13.31,42.27,13.37,42.18,13.52Z"/><path d="M40.85,17.27c-.11-.27-.11-.27.16-.36Z"/><path d="M19.36,17.2c.12-.22.12-.22.33-.08Z"/><path d="M41.68,13.74c-.11-.06-.27-.1-.12-.28A.19.19,0,0,1,41.68,13.74Z"/><path d="M45.31,10.65l.34.15C45.37,10.88,45.35,10.87,45.31,10.65Z"/><path d="M41.21,16.39a.23.23,0,0,1,0-.37Z"/><path d="M48.46,22c.12-.1.21-.08.34.06C48.39,22.09,48.45,22.11,48.46,22Z"/><path d="M38.55,4.71c.15,0,.33-.07.38.1C38.72,4.93,38.66,4.77,38.55,4.71Z"/><path d="M41.34,18.66c.13,0,.29-.08.41.06-.18,0-.34.15-.46,0Z"/><path d="M32,16.24s-.05,0-.05,0,0-.19.13-.24a.08.08,0,0,1,.08,0C32.23,16.1,32.09,16.16,32,16.24Z"/><path d="M34.2,21.88c.06.07.09,0-.17.21C33.94,22,33.91,22,34.2,21.88Z"/><path d="M49.47,19c0-.19,0-.19.15-.3C49.68,18.82,49.67,18.91,49.47,19Z"/><path d="M44.75,2.58c.38,0,.33,0,.31.07S44.83,2.78,44.75,2.58Z"/><path d="M41.3,13.89c.16.06.21.12.08.23S41.22,14,41.3,13.89Z"/><path d="M50.83,31.34l.16.26a1.26,1.26,0,0,1-.26-.06C50.61,31.47,50.73,31.42,50.83,31.34Z"/><path d="M46.53,6.22c.26-.2.39,0,.3.06A.21.21,0,0,1,46.53,6.22Z"/><path d="M51,26.47c-.29.16-.29.16-.34-.06Z"/><path d="M49.89,31.3c.13-.13.12-.16.31-.16,0,0,0,.06,0,.06a.59.59,0,0,1-.17.1C50,31.32,49.87,31.29,49.89,31.3Z"/><path d="M45.3.24c-.1.08-.2.18-.35.11C45,.19,45.18.24,45.3.24Z"/><path d="M40,16.41l-.05-.28C40.15,16.15,40.15,16.15,40,16.41Z"/><path d="M47.88,6.61l-.1,0c-.07-.12,0-.18.15-.21S48.07,6.39,47.88,6.61Z"/><path d="M49.41,19.18c.17.07.16,0,0,.21C49.29,19.32,49.28,19.38,49.41,19.18Z"/><path d="M45.87,7.52l.32,0c0,.07-.06.11-.09.14S45.91,7.65,45.87,7.52Z"/><path d="M6.87,37.61c-.11-.15-.08-.22,0-.28s.11,0,.11,0A2.46,2.46,0,0,1,6.87,37.61Z"/><path d="M50.32,17.6c.18-.08.33-.12.36.08C50.27,17.77,50.36,17.54,50.32,17.6Z"/><path d="M23.4,10.22a.58.58,0,0,1-.14.16.17.17,0,0,1-.14,0,.17.17,0,0,1,.05-.14A.63.63,0,0,1,23.4,10.22Z"/><path d="M43.16,5.82l.22-.35C43.42,5.67,43.42,5.67,43.16,5.82Z"/><path d="M45.13,1.23l-.24-.16C45.08,1,45.2,1,45.13,1.23Z"/><path d="M6.64,37.35l-.08-.26C6.72,37.11,6.69,37.19,6.64,37.35Z"/><path d="M46.05,8.31c-.19.13-.19.13-.36,0Z"/><path d="M49.2,32.51c-.24.14-.31,0-.23-.08S49.16,32.42,49.2,32.51Z"/><path d="M45.55,9l.19.18C45.57,9.28,45.57,9.28,45.55,9Z"/><path d="M1.91,13.8c0,.07.14.11,0,.2-.12-.12-.12-.12,0-.2Z"/><path d="M44.6,9.79c-.11.13,0,.12-.27.07C44.39,9.75,44.32,9.77,44.6,9.79Z"/><path d="M44.09,7.05c.16,0,.11.1.07.2L44,7.2Z"/><path d="M38.58.63c.08.14,0,.19-.19.19Z"/><path d="M41.66,15.09l0,.28c-.2,0-.18-.11-.25-.2Z"/><path d="M34,32.89c0,.12-.15.2-.4.23C34,32.79,34,32.82,34,32.89Z"/><path d="M45,11.05c.13.1.09.18,0,.24S44.9,11.31,45,11.05Z"/><path d="M32.83,14.79c.31-.2.25-.19.31-.13C32.85,14.88,32.92,14.86,32.83,14.79Z"/><path d="M12.26,4.59c-.25.21-.17.18-.31.14C12.09,4.56,12,4.61,12.26,4.59Z"/><path d="M31.7,3.14c-.31,0-.27,0-.26-.07C31.77,3,31.72,3,31.7,3.14Z"/><path d="M10.23,10.82l-.21.26C10,10.93,10,10.93,10.23,10.82Z"/><path d="M23,7.25c.22-.14.15-.12.28-.07C23.11,7.32,23.18,7.3,23,7.25Z"/><path d="M45.37,2.56c.13.15.13.15-.08.2C45.19,2.65,45.42,2.57,45.37,2.56Z"/><path d="M40.93,9c-.08.15,0,.13-.21.1C40.82,9,40.77,9,40.93,9Z"/><path d="M46.71,8.52c0-.18.11-.2.3-.13Z"/><path d="M50.42,16.61c.22,0,.18,0,.16.09C50.35,16.69,50.38,16.71,50.42,16.61Z"/><path d="M46.74,3.11c-.11.1-.19.12-.29.05C46.55,3.05,46.63,3.08,46.74,3.11Z"/><path d="M41.86,12.66c.12.1.11.06,0,.17C41.75,12.76,41.78,12.8,41.86,12.66Z"/><path d="M44.53,4.11l-.15.14C44.35,4.09,44.35,4.09,44.53,4.11Z"/><path d="M39.11,14.06c-.13-.09-.17-.14,0-.25Z"/><path d="M30,31.89l.05-.22C30.17,31.75,30.19,31.81,30,31.89Z"/><path d="M30.05,4.35c.25-.19.19-.17.27-.11C30.09,4.44,30.15,4.43,30.05,4.35Z"/><path d="M44.7,9.16c.1-.09.19-.1.3,0C44.65,9.24,44.7,9.26,44.7,9.16Z"/><path d="M38,2.06c0,.23,0,.19-.07.21C37.88,2.05,37.86,2.09,38,2.06Z"/><path d="M7.87,12.24c-.18.15-.14.14-.21.08C7.85,12.18,7.81,12.19,7.87,12.24Z"/><path d="M40.53,9.85l-.25.07C40.35,9.78,40.42,9.75,40.53,9.85Z"/><path d="M35.53,20c.06.15,0,.22-.2.32Z"/><path d="M44.77.75,45.1.64C45,.79,44.94.79,44.77.75Z"/><path d="M39.6,14.8c.12-.13.2-.14.27-.09S39.92,14.78,39.6,14.8Z"/><path d="M38,4.1c0-.16,0-.14.12-.12C38,4.14,38,4.11,38,4.1Z"/><path d="M45.32,7.9c0-.15,0-.15.28-.19Z"/><path d="M49.18,32.1c0,.09.06.07-.14.13C49,32.15,49,32.18,49.18,32.1Z"/><path d="M38.08,13.47s0,.09-.07.09a.2.2,0,0,1-.11,0s0-.07,0-.07A.35.35,0,0,1,38.08,13.47Z"/><path d="M34.58,14.38c0,.22.05.19-.08.19C34.58,14.36,34.57,14.37,34.58,14.38Z"/><path d="M49.3,16.16c.16-.1.12-.09.18,0C49.33,16.22,49.36,16.22,49.3,16.16Z"/><path d="M33.07,21.41c-.13.13-.07.12-.21.08C32.94,21.37,32.89,21.4,33.07,21.41Z"/><path d="M35,21.91c-.16.13-.1.11-.22.06C34.92,21.85,34.87,21.87,35,21.91Z"/><path d="M42.58,10.76l-.21.19C42.41,10.81,42.41,10.81,42.58,10.76Z"/><path d="M46,9.44c-.17,0-.14,0-.14,0C46,9.38,46,9.37,46,9.44Z"/><path d="M4.21,32.93l.14-.12,0,0C4.27,33,4.29,33,4.21,32.93Z"/><path d="M7.45,37.21c.27,0,.23,0,.24,0a.33.33,0,0,1-.24,0Z"/><path d="M49.19,17.29a1.11,1.11,0,0,1,.19-.09l0,.05-.18.12Z"/><path d="M41.81,17.76c-.23,0-.21,0-.12-.1C41.82,17.77,41.8,17.77,41.81,17.76Z"/><path d="M22.18,28.5c-.24.13-.19.12-.24.07C22.16,28.41,22.11,28.42,22.18,28.5Z"/><path d="M4.77,35.44c-.15-.12-.15-.09-.07-.15C4.84,35.42,4.84,35.39,4.77,35.44Z"/><path d="M43.35,16.5c.24,0,.21,0,.19.06C43.29,16.57,43.33,16.59,43.35,16.5Z"/><path d="M14,18.37a.75.75,0,0,1-.14.08s-.08,0-.08,0S13.82,18.34,14,18.37Z"/><path d="M18.34,16.51c.12-.13.08-.1.18-.08C18.44,16.55,18.49,16.53,18.34,16.51Z"/><path d="M44.36,7.79c-.24.06-.2.07-.21,0C44.4,7.73,44.35,7.73,44.36,7.79Z"/><path d="M45.46,7.27c-.22.05-.18.06-.2,0C45.48,7.18,45.44,7.17,45.46,7.27Z"/><path d="M44.09,7.05c-.12.06-.24.12-.31-.09C44.12,7.06,44.08,7.06,44.09,7.05Z"/><path d="M18.7,14.44c.16.14.15.11.07.16C18.62,14.46,18.63,14.49,18.7,14.44Z"/><path d="M12.69,15.2c-.19.08-.15.08-.18,0C12.7,15.14,12.67,15.14,12.69,15.2Z"/><path d="M48.24,3.49c0-.15,0-.11.09-.14C48.33,3.5,48.35,3.47,48.24,3.49Z"/><path d="M38.19,21c.13,0,.12,0,.05.13C38.1,21.12,38.12,21.15,38.19,21Z"/><path d="M44.86,1.93c.16-.07.23-.07.25.09Z"/><path d="M29,6.25c0,.09,0,.08-.19.07C28.81,6.26,28.78,6.28,29,6.25Z"/><path d="M38.68,15.26c.17-.14.13-.13.18-.09C38.71,15.31,38.75,15.29,38.68,15.26Z"/><path d="M23.59,3.88c.23,0,.19,0,.18.08C23.51,4,23.55,4,23.59,3.88Z"/><path d="M50.33,27.41c0-.21,0-.17.06-.19C50.45,27.42,50.47,27.38,50.33,27.41Z"/><path d="M39.4,30.8c.06-.05.14-.16.2,0s0,.07-.05.07A.68.68,0,0,1,39.4,30.8Z"/><path d="M38.77,23.62c-.16.11-.22.09-.27-.05Z"/><path d="M45.32,12.29l.22,0C45.45,12.38,45.45,12.38,45.32,12.29Z"/><path d="M45.13,17.68c-.19.19-.14.17-.23.12C45.08,17.62,45,17.64,45.13,17.68Z"/><path d="M39.05,21.25a.34.34,0,0,1-.11.07l-.06,0,.08-.09Z"/><path d="M42,18.54c.18-.05.15-.06.15,0C42,18.59,42,18.6,42,18.54Z"/><path d="M1.91,31.1c-.09.08,0,.08-.16,0C1.82,31.05,1.79,31.07,1.91,31.1Z"/><path d="M51.15,31.25c-.1.08,0,.08-.19,0C51.09,31.19,51.05,31.2,51.15,31.25Z"/><path d="M20.34,12.9c-.09.11,0,.1-.18.06C20.22,12.89,20.17,12.89,20.34,12.9Z"/><path d="M37.81,16.59a.88.88,0,0,1-.13.07s0,0,0,0a.14.14,0,0,1,.07-.06S37.75,16.57,37.81,16.59Z"/><path d="M27.43,11.79l-.1,0a.07.07,0,0,1,0-.07.13.13,0,0,1,.09,0S27.44,11.76,27.43,11.79Z"/><path d="M46.47,7.72c.06-.16.17-.15.25-.17S46.8,7.6,46.47,7.72Z"/><path d="M34.21,8c-.15.11-.1.09-.18,0C34.14,7.94,34.09,8,34.21,8Z"/><path d="M33,8c0-.06-.06,0,.13-.13C33.16,7.91,33.19,7.88,33,8Z"/><path d="M40.16,17.38c-.11.13,0,.11-.21.09C40,17.36,40,17.38,40.16,17.38Z"/><path d="M48.75,7.19c-.2.09-.16.09-.19,0C48.76,7.12,48.72,7.12,48.75,7.19Z"/><path d="M41.21,15.7c-.21.13-.15.12-.23.08C41.07,15.7,41,15.72,41.21,15.7Z"/><path d="M37.6,20.87c-.12.13-.08.11-.2.06C37.52,20.82,37.47,20.85,37.6,20.87Z"/><path d="M45.38,8.4c0,.16.06.13-.1.13C45.4,8.39,45.39,8.4,45.38,8.4Z"/><path d="M38.36,11.16c-.06.11,0,.09-.17.09C38.22,11.17,38.17,11.18,38.36,11.16Z"/><path d="M45.1,9.41c0,.07,0,.06-.1.07S45,9.43,45.1,9.41Z"/><path d="M31.29,16.8c.11,0,.1,0,0,.11S31.23,16.91,31.29,16.8Z"/><path d="M41.58,10.76c-.14-.1-.13-.08-.08-.12S41.65,10.7,41.58,10.76Z"/><path d="M27.84,8.81c.22-.12.17-.11.22-.07C27.85,8.88,27.89,8.87,27.84,8.81Z"/><path d="M18.23,11.53c-.14-.09-.13-.07-.07-.12S18.29,11.46,18.23,11.53Z"/><path d="M21.83,10.05c-.15.11-.12.1-.17.08C21.79,10,21.75,10,21.83,10.05Z"/><path d="M44.58,11.33c.19-.13.13-.1.22-.07C44.69,11.4,44.74,11.38,44.58,11.33Z"/><path d="M44.58,6.89c-.09,0-.18.07-.21,0C44.59,6.7,44.56,6.92,44.58,6.89Z"/><path d="M44,15.28c-.06.1,0,.09-.17.07C44,15.26,43.91,15.28,44,15.28Z"/><path d="M49.69,21.67c-.11-.06-.11,0,0-.14C49.76,21.57,49.76,21.53,49.69,21.67Z"/><path d="M37.61,13.44c-.15-.07-.13,0,0-.14C37.68,13.37,37.66,13.34,37.61,13.44Z"/><path d="M44.78,2.3l-.17,0V2.28C44.81,2.23,44.78,2.24,44.78,2.3Z"/><path d="M34.58,14.38c0-.07,0-.15.1-.2C34.79,14.3,34.59,14.38,34.58,14.38Z"/><path d="M46.34,1.47c.2,0,.16,0,.17.05C46.29,1.55,46.33,1.57,46.34,1.47Z"/><path d="M40.8,8.09c.13,0,.11,0,.05.1S40.76,8.18,40.8,8.09Z"/><path d="M22.91,8.79c-.1.08-.05.08-.18,0C22.82,8.72,22.78,8.72,22.91,8.79Z"/><path d="M7.85,36.28c-.18.17-.11.15-.23.09C7.75,36.25,7.69,36.28,7.85,36.28Z"/><path d="M41.32,35.33c-.22.14-.17.13-.23.06C41.31,35.26,41.26,35.27,41.32,35.33Z"/><path d="M51.28,31.77s.08.06.08.08a.2.2,0,0,1-.09.07s-.09,0-.09,0S51.23,31.82,51.28,31.77Z"/><path d="M21.48,7.51c.18-.14.14-.12.2-.07C21.5,7.58,21.55,7.57,21.48,7.51Z"/><path d="M26.28,25.8c.12.05.12,0,0,.14C26.24,25.9,26.24,25.94,26.28,25.8Z"/><path d="M46,9.69c-.18,0-.14,0-.16,0C46.05,9.63,46,9.62,46,9.69Z"/><path d="M7,37.7c-.19.1-.13.1-.22,0C7,37.62,6.9,37.64,7,37.7Z"/><path d="M24.56,32.07c-.09.11,0,.1-.22.06C24.39,32,24.34,32.06,24.56,32.07Z"/><path d="M50.32,31.69c-.09.1,0,.09-.19.07C50.18,31.68,50.12,31.69,50.32,31.69Z"/><path d="M31.82,3.51l-.21-.09C31.77,3.4,31.77,3.4,31.82,3.51Z"/><path d="M31.55,37.76c.21,0,.17,0,.18,0C31.52,37.82,31.55,37.82,31.55,37.76Z"/><path d="M.08,13.58c-.1.09,0,.09-.18,0C0,13.51,0,13.52.08,13.58Z"/><path d="M23,23.89s.07,0,.06.05,0,0-.06.06S23,24,23,24Z"/></g></mask></defs><g id="Capa_2" data-name="Capa 2"><g id="Capa_1-2" data-name="Capa 1"><g class="cls-3"><path class="cls-1" d="M19.83,1.89a18.32,18.32,0,0,1,21,7.49l1-.32A19.28,19.28,0,0,0,6.22,20.58l1-.32A18.32,18.32,0,0,1,19.83,1.89Zm10.68,33a16.43,16.43,0,0,1-18.32-6l-.51.16a16.9,16.9,0,0,0,30.68-9.93l-.5.17A16.43,16.43,0,0,1,30.51,34.89Zm.58,1.79a18.32,18.32,0,0,1-20.78-7.16l-1,.33a19.28,19.28,0,0,0,35.4-11.46l-1,.32A18.31,18.31,0,0,1,31.09,36.68ZM20.25,3.21A16.93,16.93,0,0,0,8.57,19.82l.5-.16A16.4,16.4,0,0,1,39,10l.5-.16A16.93,16.93,0,0,0,20.25,3.21Z"/><path class="cls-1" d="M5.39,28.56a2.07,2.07,0,0,1-1.24.91,4.08,4.08,0,0,1-1,.19,3.3,3.3,0,0,1-1-.1,2.73,2.73,0,0,1-.83-.38,2.58,2.58,0,0,1-.69-.67,3.3,3.3,0,0,1-.47-1A3.62,3.62,0,0,1,0,26.31a3.25,3.25,0,0,1,.22-1.13,2.52,2.52,0,0,1,.69-.95,3,3,0,0,1,1.14-.63,2,2,0,0,1,1.28-.06l.08-.27,1.11-.36L5.3,25.3l-1,.33a2.25,2.25,0,0,0-.18-.35A1.62,1.62,0,0,0,3.9,25a.8.8,0,0,0-.26-.21.66.66,0,0,0-.32-.08,1,1,0,0,0-.41.06,1.05,1.05,0,0,0-.42.22.76.76,0,0,0-.23.33,1.64,1.64,0,0,0-.1.38,2.09,2.09,0,0,0,0,.43,4.16,4.16,0,0,0,.08.43c0,.13.07.26.12.41.33,1,.87,1.44,1.61,1.2a.82.82,0,0,0,.42-.3.49.49,0,0,0,.07-.48,1.18,1.18,0,0,0-.12-.27l-.56.18-.35-1.08,2.21-.71,1,3-1,.32Z"/><path class="cls-1" d="M11.41,25a1.76,1.76,0,0,1,0,1.11,2.25,2.25,0,0,1-.62,1,2.77,2.77,0,0,1-1,.61,3.56,3.56,0,0,1-.72.15,2.41,2.41,0,0,1-.61,0,1.67,1.67,0,0,1-.5-.19,1.9,1.9,0,0,1-.42-.31,3,3,0,0,1-.33-.43,4.82,4.82,0,0,1-.27-.5q-.1-.25-.21-.57l-.65-2L5.46,24l-.4-1.24,3.07-1L8.53,23,8,23.15l.76,2.37a2.22,2.22,0,0,0,.14.31,1,1,0,0,0,.2.25.59.59,0,0,0,.28.15.68.68,0,0,0,.34,0,.74.74,0,0,0,.45-.34.69.69,0,0,0,0-.55l-.84-2.6-.58.19-.4-1.24,2.31-.75.4,1.25-.55.17Z"/><path class="cls-1" d="M17.16,23.4a1.49,1.49,0,0,0,.11.15.24.24,0,0,0,.09.08.12.12,0,0,0,.1,0l.31-.1.41,1.27-2.92.94-.41-1.27.42-.13q-.18-.59-.42-.51l-1,.32a.09.09,0,0,0-.06.06.25.25,0,0,0,0,.08,1,1,0,0,1,0,.12,1.2,1.2,0,0,0,.12.21q.07.12.15.09l.3-.09.41,1.26-2.4.78L12,25.41a.85.85,0,0,0,.27-.12.57.57,0,0,0,.28-.46,2.92,2.92,0,0,0,0-.5l-.17-2.59-.75.24-.4-1.24,3.51-1.14ZM14.5,23l-1-1.66.19,1.92Z"/><path class="cls-1" d="M21.26,23.82l-2.86.93L18,23.48l.55-.18-1.05-3.22-.54.18L16.54,19l3.59-1.16a3.22,3.22,0,0,1,.79-.17,1.82,1.82,0,0,1,.67.08,1.27,1.27,0,0,1,.55.38,2,2,0,0,1,.37.7,1.2,1.2,0,0,1-.06.95,1.78,1.78,0,0,1-.79.74,1.81,1.81,0,0,1,.86.09.75.75,0,0,1,.4.47l.11.33a.91.91,0,0,0,.06.16.53.53,0,0,0,.11.09.41.41,0,0,0,.2,0,2.18,2.18,0,0,0,.33-.08l.41,1.27-.93.3-.22.06-.21.06-.22.05h-.21a.62.62,0,0,1-.2,0L22,23.29a.43.43,0,0,1-.17-.12.72.72,0,0,1-.14-.19,1,1,0,0,1-.12-.25L21.32,22a1.59,1.59,0,0,0-.14-.34.81.81,0,0,0-.17-.24.42.42,0,0,0-.26-.12,1,1,0,0,0-.36.05l-.35.12.38,1.18.43-.14ZM20,20.65a1.8,1.8,0,0,0,.31-.14.94.94,0,0,0,.25-.18.55.55,0,0,0,.14-.26.63.63,0,0,0,0-.33.61.61,0,0,0-.32-.39.74.74,0,0,0-.55,0l-.43.14.4,1.24Z"/><path class="cls-1" d="M28.86,19.62c0,.06.08.11.1.15l.09.08a.14.14,0,0,0,.11,0l.3-.1L29.87,21,27,22l-.42-1.26.43-.14c-.13-.38-.27-.55-.43-.5l-1,.31a.09.09,0,0,0-.06.06.14.14,0,0,0,0,.09.53.53,0,0,1,0,.11.9.9,0,0,0,.11.22c.05.07.11.1.15.09l.3-.1.41,1.27-2.39.77-.41-1.26.26-.12a.6.6,0,0,0,.29-.46,3.43,3.43,0,0,0,0-.5L24.08,18l-.75.25L22.92,17l3.51-1.13Zm-2.67-.41-1-1.66.18,1.92Z"/><path class="cls-1" d="M34.69,14.52a.61.61,0,0,0-.39.28.66.66,0,0,0,0,.44l1.28,3.94-2.14.69-2.7-2.66.45,1.42a.58.58,0,0,0,.26.36.7.7,0,0,0,.47,0l.41,1.26L30.08,21l-.41-1.26a.9.9,0,0,0,.26-.13.39.39,0,0,0,.14-.15.34.34,0,0,0,0-.18,1,1,0,0,0,0-.19,1.94,1.94,0,0,0-.06-.22l-.83-2.54-.55.18-.4-1.24,2.59-.84,2.87,2.88-.54-1.66,0-.13-.05-.11a.35.35,0,0,0-.09-.11l-.12-.06a.37.37,0,0,0-.19,0,1.53,1.53,0,0,0-.24.07L32,14l2.25-.72Z"/><path class="cls-1" d="M39.37,14.19l-.57-1-.37.12,1,3.21.58-.19.41,1.27-3.15,1-.41-1.27.58-.19-1-3.21-.35.12.12,1.15-1,.32-.75-2.32,5.14-1.67.75,2.32Z"/><path class="cls-1" d="M44.21,12.62l-.62-1-.75.24.32,1,.73-.24.4,1.24-.72.24.31,1,.78-.25,0-.23-.08-1,1-.31.79,2.42-4.52,1.46-.41-1.26.56-.18-1-3.22-.56.18-.4-1.24L44.4,10l.75,2.31Z"/><path class="cls-1" d="M49.3,11l-.61-1-.76.24.33,1L49,11l.4,1.25-.72.23.31,1,.78-.25,0-.23-.08-1,1-.31.79,2.43-4.51,1.46-.41-1.27.55-.18-1-3.22-.55.18L45,9.8,49.5,8.35l.74,2.31Z"/><path class="cls-1" d="M13.41,13.65l.21.64-.38.13a.36.36,0,0,0-.16-.14.21.21,0,0,0-.19,0,.16.16,0,0,0-.08.05.17.17,0,0,0,0,.1.08.08,0,0,0,0,.05.16.16,0,0,0,.1,0h.46a.55.55,0,0,1,.17,0l.16.08a.71.71,0,0,1,.15.15A1.13,1.13,0,0,1,14,15a.78.78,0,0,1,0,.26,1.09,1.09,0,0,1-.05.26.85.85,0,0,1-.14.21.65.65,0,0,1-.23.13.75.75,0,0,1-.24,0,.52.52,0,0,1-.22-.06V16l-.4.13-.21-.64.4-.13a.43.43,0,0,0,.17.12.28.28,0,0,0,.2,0l.08,0a.12.12,0,0,0,0-.1.1.1,0,0,0-.05-.06l-.08,0h-.48l-.12,0-.11-.05-.1-.06-.09-.1-.07-.11-.06-.15a.78.78,0,0,1,0-.52.54.54,0,0,1,.37-.31.62.62,0,0,1,.42,0l0-.09Z"/><path class="cls-1" d="M15.9,14.46l0,.06,0,0h0l.11,0,.14.44-1,.34-.15-.45.15,0c0-.14-.09-.19-.15-.18l-.34.11s0,0,0,0a0,0,0,0,0,0,0v0s0,0,0,.07,0,0,.05,0l.1,0,.15.45-.85.27-.14-.45a.25.25,0,0,0,.19-.2.48.48,0,0,0,0-.18l-.06-.91L14,14l-.15-.44,1.24-.4ZM15,14.32l-.35-.59.06.68Z"/><path class="cls-1" d="M17.25,13.31l-.2-.35-.13,0,.37,1.13.2-.06.14.45-1.11.36-.14-.45.2-.07-.36-1.13-.13,0,.05.4-.35.12L15.52,13l1.82-.59.26.82Z"/><path class="cls-1" d="M18.68,12.43l-.19.06.37,1.14.18-.06.14.45-1.07.34L18,13.92l.19-.06-.37-1.14-.18.06-.14-.44L18.54,12Z"/><path class="cls-1" d="M20.05,11.5l.21.64-.38.13a.36.36,0,0,0-.16-.14.26.26,0,0,0-.19,0,.1.1,0,0,0-.08.06s0,.05,0,.09,0,0,.05.06l.1,0h.46a.59.59,0,0,1,.17,0l.16.08a.67.67,0,0,1,.14.15.67.67,0,0,1,.15.48.58.58,0,0,1-.05.26.49.49,0,0,1-.14.21.5.5,0,0,1-.22.13.55.55,0,0,1-.24,0,.63.63,0,0,1-.22-.05v.13l-.4.13-.21-.65.4-.13a.35.35,0,0,0,.17.12.26.26,0,0,0,.19,0l.09-.06a.12.12,0,0,0,0-.1.17.17,0,0,0-.06-.06l-.07,0h-.49l-.11,0a.28.28,0,0,1-.11,0,.33.33,0,0,1-.1-.06L19,12.82,19,12.7a.47.47,0,0,1-.06-.15.72.72,0,0,1,0-.52.54.54,0,0,1,.36-.31.71.71,0,0,1,.43,0,.32.32,0,0,1,0-.08Z"/><path class="cls-1" d="M21.87,12.26l-.25.08.12.35.19-.06.14.45L21,13.43,20.84,13l.19-.07-.36-1.13-.2.06-.14-.44,1.59-.51.26.82-.35.12-.21-.36-.25.08.11.34.25-.08Z"/><path class="cls-1" d="M24.19,11.78l0,.05,0,0h0l.11,0,.14.45-1,.33-.14-.45.15,0q-.08-.21-.15-.18l-.35.11s0,0,0,0v.07l0,.08.06,0,.1,0,.15.45-.85.27-.14-.44.09,0a.22.22,0,0,0,.1-.17v-.17l-.06-.92-.27.09-.14-.44,1.24-.4Zm-.94-.15-.35-.58.07.68Z"/><path class="cls-1" d="M26.21,11.46l0,0-.09.11-.13.14-.2.14a.8.8,0,0,1-.25.11A1,1,0,0,1,25,12a.85.85,0,0,1-.44-.25,1.47,1.47,0,0,1-.28-.51,1.32,1.32,0,0,1-.07-.32,1.71,1.71,0,0,1,0-.32,1.4,1.4,0,0,1,.09-.29.72.72,0,0,1,.19-.24.87.87,0,0,1,.3-.17l.16,0a.4.4,0,0,1,.16,0,.47.47,0,0,1,.17,0v-.1l.39-.12.25.78-.37.12a.61.61,0,0,0-.05-.12l-.09-.11a.23.23,0,0,0-.12-.06.38.38,0,0,0-.15,0l-.1.06-.06.07,0,.1v.1a.52.52,0,0,0,0,.11.3.3,0,0,0,0,.1l0,.1L25,11a.56.56,0,0,0,0,.12s0,.08.05.13a.41.41,0,0,0,.07.11.24.24,0,0,0,.08.09.25.25,0,0,0,.12,0,.23.23,0,0,0,.14,0,.28.28,0,0,0,.16-.12.25.25,0,0,0,0-.19.49.49,0,0,0,0-.12l.38-.12Z"/><path class="cls-1" d="M27.46,10l-.2-.36-.13,0,.37,1.13.2-.07.15.45-1.11.36-.15-.45.21-.06-.37-1.14-.12,0,0,.41-.35.11-.27-.82,1.82-.58.26.81Z"/><path class="cls-1" d="M28.89,9.13l-.18.06.36,1.13.18-.06.14.45-1.07.35-.14-.45.18-.06L28,9.42l-.18.05L27.67,9l1.08-.34Z"/><path class="cls-1" d="M31.22,9a1.11,1.11,0,0,1,0,.57,1,1,0,0,1-.25.5,1.06,1.06,0,0,1-.47.3,1.11,1.11,0,0,1-.57,0,1,1,0,0,1-.49-.25,1.12,1.12,0,0,1-.3-.49,1.18,1.18,0,0,1-.05-.61,1,1,0,0,1,.24-.48,1.14,1.14,0,0,1,.49-.29,1.09,1.09,0,0,1,.56,0,.93.93,0,0,1,.48.25A1.18,1.18,0,0,1,31.22,9ZM30.4,10l.08,0,.05-.06a.29.29,0,0,0,0-.09.28.28,0,0,0,0-.09.34.34,0,0,1,0-.1l0-.1,0-.1a.29.29,0,0,0,0-.09l0,0v0l0-.09a.3.3,0,0,0,0-.1.31.31,0,0,0-.05-.1.41.41,0,0,0-.05-.09s-.05-.05-.08-.06a.11.11,0,0,0-.08,0,.21.21,0,0,0-.11,0l-.08,0a.18.18,0,0,0-.05.07l0,.07a.28.28,0,0,0,0,.09.28.28,0,0,1,0,.09s0,.07,0,.1l0,.09,0,.08v.08l0,.08,0,.08,0,.09,0,.08.05.07.06.06.06,0,.07,0Z"/><path class="cls-1" d="M33.26,7.71a.2.2,0,0,0-.13.1.19.19,0,0,0,0,.15l.45,1.4-.76.24-.95-.94.16.5a.19.19,0,0,0,.09.13.26.26,0,0,0,.17,0l.14.45-.79.25-.15-.44.1,0,.05-.05s0,0,0-.06a.15.15,0,0,0,0-.07.31.31,0,0,0,0-.08l-.29-.9-.2.07L31,8l.92-.3,1,1-.19-.58,0,0s0,0,0,0l0,0,0,0h-.06l-.09,0-.14-.44.79-.26Z"/><path class="cls-1" d="M18.36,28.92l.2.64-.38.13a.34.34,0,0,0-.15-.14.24.24,0,0,0-.2,0,.16.16,0,0,0-.08,0,.17.17,0,0,0,0,.1s0,0,.05.06l.1,0H18a.43.43,0,0,1,.16,0h.17a.47.47,0,0,1,.17,0l.17.08a1,1,0,0,1,.14.15,1.13,1.13,0,0,1,.11.22.78.78,0,0,1,0,.26.75.75,0,0,1,0,.26.6.6,0,0,1-.14.21.73.73,0,0,1-.46.17.74.74,0,0,1-.23-.05v.12l-.41.14-.21-.65.41-.13a.4.4,0,0,0,.16.12.35.35,0,0,0,.2,0l.09-.06a.11.11,0,0,0,0-.1.15.15,0,0,0-.05-.06l-.07,0h-.49l-.12,0-.11-.05-.1-.06-.08-.09-.08-.12L17.2,30a.84.84,0,0,1,0-.52.54.54,0,0,1,.37-.31.68.68,0,0,1,.42,0s0,0,0-.08Z"/><path class="cls-1" d="M20.84,29.73l0,.06,0,0h0l.1,0,.15.44-1,.34L20,30.12l.15-.05q-.06-.2-.15-.18l-.34.12a0,0,0,0,0,0,0v.07a.25.25,0,0,0,0,.07s0,0,.05,0l.11,0,.14.45-.84.27L19,30.44l.1,0a.2.2,0,0,0,.1-.16,1.74,1.74,0,0,0,0-.18l-.06-.91-.26.08-.14-.44,1.23-.4Zm-.94-.14L19.55,29l.06.67Z"/><path class="cls-1" d="M22.19,28.58l-.2-.35-.13,0,.37,1.14.2-.07.15.45-1.11.36-.15-.45.21-.07-.37-1.13-.12,0,0,.41-.35.11-.27-.82,1.82-.59.26.82Z"/><path class="cls-1" d="M23.62,27.7l-.18.06.36,1.14.18-.06.15.45-1.08.34-.14-.44.18-.06L22.72,28l-.18.06-.14-.44,1.08-.35Z"/><path class="cls-1" d="M25,26.77l.21.65-.38.12a.36.36,0,0,0-.16-.14.25.25,0,0,0-.19,0,.12.12,0,0,0-.08.06.14.14,0,0,0,0,.09s0,0,.05.06l.1,0H25a.53.53,0,0,1,.17,0l.16.08a1.06,1.06,0,0,1,.15.15,1.13,1.13,0,0,1,.11.22.84.84,0,0,1,0,.27,1,1,0,0,1-.05.25.6.6,0,0,1-.14.21.68.68,0,0,1-.23.14A.72.72,0,0,1,25,29a.68.68,0,0,1-.22-.05v.13l-.4.13-.21-.65.4-.13a.3.3,0,0,0,.17.12.28.28,0,0,0,.2,0,.16.16,0,0,0,.08-.06.1.1,0,0,0,0-.09.18.18,0,0,0-.05-.07l-.08,0a.11.11,0,0,0-.08,0h-.4l-.12,0-.11,0-.1-.07L24,28.09,23.9,28l-.06-.15a.72.72,0,0,1,0-.52A.54.54,0,0,1,24.2,27a.61.61,0,0,1,.42,0,.81.81,0,0,1,0-.09Z"/><path class="cls-1" d="M26.82,27.53l-.25.08.11.36.19-.07.15.45-1.1.35-.14-.44.2-.07-.37-1.13-.2.06-.14-.44,1.59-.51.27.83-.36.11-.2-.36-.26.08.11.34.25-.08Z"/><path class="cls-1" d="M29.14,27.05l0,.05,0,0h0l.11,0,.14.45-1,.33-.14-.44.15-.05q-.07-.21-.15-.18l-.34.11a0,0,0,0,0,0,0,0,0,0,0,0,0,0v0s0,.05,0,.08,0,0,.06,0l.1,0,.15.44-.85.28-.14-.45.09,0a.19.19,0,0,0,.1-.17.87.87,0,0,0,0-.17l-.06-.92-.27.09L27,26.11l1.24-.4Zm-.95-.14-.35-.59.07.68Z"/><path class="cls-1" d="M31.16,26.73l0,0-.08.11a1.85,1.85,0,0,1-.14.14,1.15,1.15,0,0,1-.2.14.8.8,0,0,1-.25.11,1,1,0,0,1-.56,0,.88.88,0,0,1-.45-.25,1.38,1.38,0,0,1-.28-.51,1.83,1.83,0,0,1-.07-.32,1.16,1.16,0,0,1,0-.32,1,1,0,0,1,.08-.29.88.88,0,0,1,.19-.24.72.72,0,0,1,.3-.16l.16,0H30a.43.43,0,0,1,.17,0v-.1l.39-.12.26.78-.37.12-.06-.12a.39.39,0,0,0-.08-.1.31.31,0,0,0-.13-.06.27.27,0,0,0-.15,0l-.09,0-.07.07a.3.3,0,0,0,0,.1.34.34,0,0,0,0,.1.52.52,0,0,0,0,.11.58.58,0,0,1,0,.1l0,.1,0,.06a.56.56,0,0,0,0,.12.5.5,0,0,1,.05.13.41.41,0,0,0,.07.11.38.38,0,0,0,.09.09l.11.05a.36.36,0,0,0,.14,0,.28.28,0,0,0,.16-.12.25.25,0,0,0,0-.19s0-.05,0-.12l.37-.12Z"/><path class="cls-1" d="M32.41,25.28l-.2-.36-.14,0,.37,1.13.2-.07.15.45-1.11.36-.15-.45.21-.06-.37-1.14-.12,0,0,.41-.35.11-.26-.82,1.81-.58.27.82Z"/><path class="cls-1" d="M33.83,24.4l-.18.06L34,25.59l.17-.06.15.45-1.08.35-.14-.45.18-.06-.36-1.13-.18.06-.15-.44L33.69,24Z"/><path class="cls-1" d="M36.16,24.28a1,1,0,0,1,0,.57,1,1,0,0,1-.25.5,1,1,0,0,1-.47.3,1.07,1.07,0,0,1-.56,0,1,1,0,0,1-.49-.25,1.09,1.09,0,0,1-.31-.49,1.18,1.18,0,0,1,0-.61.93.93,0,0,1,.25-.48,1.11,1.11,0,0,1,.48-.29,1.09,1.09,0,0,1,.56,0,1,1,0,0,1,.49.25A1.17,1.17,0,0,1,36.16,24.28Zm-.82.94.08,0a.15.15,0,0,0,0-.06l0-.08v-.1s0-.06,0-.1,0-.07,0-.1l0-.1,0-.09v0l0-.05,0-.09a.3.3,0,0,0,0-.1,1,1,0,0,0,0-.1l-.06-.09L35.14,24a.16.16,0,0,0-.09,0h-.11l-.08.05a.1.1,0,0,0,0,.06l0,.08a.21.21,0,0,0,0,.08.38.38,0,0,0,0,.1.29.29,0,0,0,0,.09s0,.06,0,.09l0,.08v.05l0,0a.24.24,0,0,0,0,.08l0,.09L35,25A.2.2,0,0,0,35,25s0,.05,0,.08l.06.05.06,0,.08,0Z"/><path class="cls-1" d="M38.21,23a.22.22,0,0,0-.14.1.19.19,0,0,0,0,.15l.45,1.4-.75.24-1-.94.16.5a.24.24,0,0,0,.1.13.23.23,0,0,0,.16,0l.14.45-.79.26-.14-.45.09,0a.12.12,0,0,0,0-.05.13.13,0,0,0,0-.06.15.15,0,0,0,0-.07.45.45,0,0,0,0-.08l-.29-.89-.19.06-.15-.44.92-.29,1,1-.19-.58v-.05l0,0,0,0,0,0H37.5l-.09,0-.14-.44.79-.26Z"/><polygon class="cls-1" points="20.89 6.11 21.65 6.91 22.74 6.71 22.21 7.68 22.73 8.65 21.65 8.45 20.89 9.24 20.75 8.15 19.75 7.67 20.75 7.2 20.89 6.11"/><polygon class="cls-1" points="24.18 5.8 24.72 6.37 25.49 6.23 25.12 6.92 25.49 7.6 24.72 7.46 24.18 8.03 24.08 7.25 23.37 6.91 24.08 6.58 24.18 5.8"/><polygon class="cls-1" points="18.05 7.79 18.59 8.35 19.36 8.21 18.98 8.9 19.36 9.59 18.59 9.45 18.05 10.01 17.95 9.24 17.24 8.9 17.95 8.56 18.05 7.79"/><polygon class="cls-1" points="29.61 33.05 28.86 32.25 27.77 32.45 28.3 31.48 27.77 30.51 28.86 30.71 29.62 29.92 29.76 31.01 30.75 31.48 29.76 31.96 29.61 33.05"/><polygon class="cls-1" points="26.33 33.36 25.79 32.79 25.02 32.93 25.39 32.24 25.02 31.56 25.79 31.7 26.33 31.13 26.43 31.91 27.14 32.25 26.43 32.58 26.33 33.36"/><polygon class="cls-1" points="32.46 31.37 31.92 30.81 31.15 30.95 31.53 30.26 31.15 29.57 31.92 29.71 32.46 29.15 32.56 29.92 33.27 30.26 32.56 30.6 32.46 31.37"/><rect class="cls-1" x="11.39" y="14.32" width="24.41" height="0.5" transform="translate(-3.34 7.97) rotate(-17.93)"/><rect class="cls-1" x="14.61" y="24.25" width="24.41" height="0.5" transform="translate(-6.24 9.45) rotate(-17.93)"/></g></g></g></svg>