<svg xmlns="http://www.w3.org/2000/svg" viewBox="0 0 61.15 12.66"><defs><style>.cls-1{fill:#2bc2e1;}.cls-2{fill:#fff;}</style></defs><g id="Capa_2" data-name="Capa 2"><g id="Capa_1-2" data-name="Capa 1"><rect class="cls-1" width="61.15" height="12.66" rx="3.37"/><path class="cls-2" d="M8.88,8.74V3.92h.64V8.17h2.37v.57Z"/><path class="cls-2" d="M12.76,8.74V3.92h.64V8.74Z"/><path class="cls-2" d="M18,7.05l.64.16a2.08,2.08,0,0,1-.72,1.2,2,2,0,0,1-1.28.41,2.26,2.26,0,0,1-1.26-.31,2,2,0,0,1-.75-.92,3.31,3.31,0,0,1-.25-1.3A2.72,2.72,0,0,1,14.63,5a2,2,0,0,1,.81-.85,2.36,2.36,0,0,1,1.17-.29,2,2,0,0,1,1.22.37,1.9,1.9,0,0,1,.69,1l-.63.15a1.45,1.45,0,0,0-.49-.77,1.29,1.29,0,0,0-.8-.24,1.55,1.55,0,0,0-.93.27,1.42,1.42,0,0,0-.52.71,2.92,2.92,0,0,0-.15.93,3.12,3.12,0,0,0,.17,1.07,1.34,1.34,0,0,0,.56.69,1.59,1.59,0,0,0,.82.23A1.41,1.41,0,0,0,17.46,8,1.58,1.58,0,0,0,18,7.05Z"/><path class="cls-2" d="M19.48,8.74V8.07h.67v.67Z"/><path class="cls-2" d="M23,8.82l.28-1.4h-.55V6.93h.65l.25-1.19h-.9V5.25h1L24,3.84h.5l-.29,1.41h1l.28-1.41H26L25.7,5.25h.57v.49H25.6l-.24,1.19h.91v.49h-1L25,8.82h-.49l.28-1.4h-1l-.29,1.4Zm.88-1.89h1l.25-1.19h-1Z"/><path class="cls-2" d="M28.87,8.74h-.6V5a3.54,3.54,0,0,1-.56.41,4.88,4.88,0,0,1-.62.3V5.11A3.54,3.54,0,0,0,28,4.54a2.06,2.06,0,0,0,.52-.64h.39Z"/><path class="cls-2" d="M30.38,6.36A4.24,4.24,0,0,1,30.56,5a1.75,1.75,0,0,1,.52-.81A1.32,1.32,0,0,1,32,3.9a1.41,1.41,0,0,1,.69.16,1.29,1.29,0,0,1,.48.45,2.2,2.2,0,0,1,.3.71,4.92,4.92,0,0,1,.11,1.14,4.24,4.24,0,0,1-.18,1.37,1.68,1.68,0,0,1-.52.81,1.33,1.33,0,0,1-.88.28,1.29,1.29,0,0,1-1.09-.5A3.15,3.15,0,0,1,30.38,6.36Zm.61,0a3,3,0,0,0,.28,1.58.8.8,0,0,0,.68.4.82.82,0,0,0,.69-.4,3,3,0,0,0,.28-1.58,3,3,0,0,0-.28-1.58A.82.82,0,0,0,32,4.39a.75.75,0,0,0-.65.34A3,3,0,0,0,31,6.36Z"/><path class="cls-2" d="M37.24,8.17v.57H34.05a1.14,1.14,0,0,1,.07-.41,2.08,2.08,0,0,1,.39-.64A5.75,5.75,0,0,1,35.29,7a6.58,6.58,0,0,0,1.06-1,1.26,1.26,0,0,0,.28-.72.79.79,0,0,0-.26-.59.88.88,0,0,0-.65-.24.9.9,0,0,0-.69.26,1,1,0,0,0-.26.71l-.6-.07a1.43,1.43,0,0,1,.47-1,1.81,1.81,0,0,1,2.19,0,1.28,1.28,0,0,1,.4,1,1.65,1.65,0,0,1-.11.57,2.28,2.28,0,0,1-.4.59,9.53,9.53,0,0,1-.91.84c-.36.3-.58.51-.68.61a1.4,1.4,0,0,0-.25.32Z"/><path class="cls-2" d="M37.88,6.36A4.28,4.28,0,0,1,38.05,5a1.75,1.75,0,0,1,.52-.81,1.52,1.52,0,0,1,1.56-.12,1.22,1.22,0,0,1,.48.45,2.2,2.2,0,0,1,.3.71A4.92,4.92,0,0,1,41,6.36a4.58,4.58,0,0,1-.17,1.37,1.69,1.69,0,0,1-.53.81,1.47,1.47,0,0,1-2-.22A3.16,3.16,0,0,1,37.88,6.36Zm.6,0a3.07,3.07,0,0,0,.28,1.58.79.79,0,0,0,1.37,0,3,3,0,0,0,.28-1.58,3,3,0,0,0-.28-1.58.81.81,0,0,0-.69-.39.75.75,0,0,0-.65.34A3.12,3.12,0,0,0,38.48,6.36Z"/><path class="cls-2" d="M43.52,8.74V7.59H41.43V7l2.2-3.12h.48V7h.65v.55h-.65V8.74Zm0-1.7V4.87L42,7Z"/><path class="cls-2" d="M46.28,6.13a1.1,1.1,0,0,1-.55-.39,1.06,1.06,0,0,1-.17-.6,1.16,1.16,0,0,1,.37-.88,1.59,1.59,0,0,1,2,0,1.19,1.19,0,0,1,.38.89,1,1,0,0,1-.17.58,1.12,1.12,0,0,1-.54.39,1.29,1.29,0,0,1,.68.46,1.32,1.32,0,0,1,.23.77,1.38,1.38,0,0,1-.44,1,1.78,1.78,0,0,1-2.3,0,1.4,1.4,0,0,1-.44-1.05,1.26,1.26,0,0,1,.24-.79A1.18,1.18,0,0,1,46.28,6.13ZM46,7.35a1.07,1.07,0,0,0,.12.49.86.86,0,0,0,.36.37,1.14,1.14,0,0,0,.51.13,1,1,0,0,0,.69-1.68,1,1,0,0,0-.71-.28,1,1,0,0,0-1,1Zm.19-2.23a.81.81,0,0,0,1.36.56.72.72,0,0,0,.21-.52.74.74,0,0,0-.22-.55.84.84,0,0,0-1.12,0A.71.71,0,0,0,46.16,5.12Z"/><path class="cls-2" d="M52.19,5.1l-.59.05a1.11,1.11,0,0,0-.22-.51.8.8,0,0,0-.6-.25.81.81,0,0,0-.49.15,1.31,1.31,0,0,0-.44.6,2.93,2.93,0,0,0-.17,1.11,1.4,1.4,0,0,1,.52-.48,1.49,1.49,0,0,1,.65-.16,1.36,1.36,0,0,1,1,.44,1.58,1.58,0,0,1,.41,1.13,1.85,1.85,0,0,1-.19.84,1.43,1.43,0,0,1-.54.6,1.56,1.56,0,0,1-.78.2,1.51,1.51,0,0,1-1.2-.54,2.7,2.7,0,0,1-.47-1.8,3.17,3.17,0,0,1,.52-2,1.47,1.47,0,0,1,1.21-.55,1.3,1.3,0,0,1,1.37,1.2ZM49.77,7.18a1.29,1.29,0,0,0,.13.58,1,1,0,0,0,.36.43.91.91,0,0,0,.49.15A.83.83,0,0,0,51.4,8a1.18,1.18,0,0,0,.27-.82,1.13,1.13,0,0,0-.27-.79.88.88,0,0,0-.67-.28.91.91,0,0,0-.68.28A1.05,1.05,0,0,0,49.77,7.18Z"/></g></g></svg>