<svg xmlns="http://www.w3.org/2000/svg" viewBox="0 0 100.69 5.9"><g id="Capa_2" data-name="Capa 2"><g id="Capa_1-2" data-name="Capa 1"><path d="M2.72.28V.7h-.2a1,1,0,0,0-.28,0,.29.29,0,0,0-.17.1A.31.31,0,0,0,2,1a1.14,1.14,0,0,0,0,.28V4.94a.69.69,0,0,0,0,.2.24.24,0,0,0,.08.1.35.35,0,0,0,.16.08.94.94,0,0,0,.26,0h.57l.44,0a1,1,0,0,0,.41-.18,1,1,0,0,0,.23-.22.94.94,0,0,0,.14-.26,1.49,1.49,0,0,0,.09-.3,2.87,2.87,0,0,0,0-.31h.43L4.79,5.76H0V5.35H.14l.35,0A.27.27,0,0,0,.68,5.2a.51.51,0,0,0,.07-.15,1.38,1.38,0,0,0,0-.25V1.14a.18.18,0,0,0,0-.06A.41.41,0,0,0,.75,1,.67.67,0,0,0,.69.85.4.4,0,0,0,.57.75a.67.67,0,0,0-.22,0H0V.28Z"/><path d="M6.68,5.12a.22.22,0,0,0,.06.18.3.3,0,0,0,.18,0h.31v.42H5.08V5.34h.39a.16.16,0,0,0,.11,0,.2.2,0,0,0,0-.09.34.34,0,0,0,0-.1V3a.38.38,0,0,0,0-.16.28.28,0,0,0-.19-.14,1.57,1.57,0,0,0-.33,0V2.24l.42,0,.42,0,.37-.06L6.68,2Zm-1-3.63a.51.51,0,0,1-.14-.23c0-.08,0-.14,0-.18A.53.53,0,0,1,5.7.67.57.57,0,0,1,6.11.5a.54.54,0,0,1,.41.18.57.57,0,0,1,.16.41.53.53,0,0,1-.17.41.57.57,0,0,1-.41.16l-.18,0A.45.45,0,0,1,5.69,1.49Z"/><path d="M11.14,4.81,11,5.05a1.37,1.37,0,0,1-.15.21,1,1,0,0,1-.18.19,1.82,1.82,0,0,1-.29.21,2.42,2.42,0,0,1-.39.16,1.9,1.9,0,0,1-.5.06,2.17,2.17,0,0,1-.45,0,1.76,1.76,0,0,1-.62-.28l-.25-.2A1.42,1.42,0,0,1,7.94,5a1.62,1.62,0,0,1-.19-.44A2.13,2.13,0,0,1,7.67,4a2.2,2.2,0,0,1,.13-.78,2,2,0,0,1,.38-.63,1.81,1.81,0,0,1,.6-.42A1.86,1.86,0,0,1,9.57,2h.18l.29,0,.34.12a1.18,1.18,0,0,1,.31.24.82.82,0,0,1,.12.15.56.56,0,0,1,.07.3.62.62,0,0,1-.05.25.67.67,0,0,1-.14.15.33.33,0,0,1-.16.07.34.34,0,0,1-.13,0,.49.49,0,0,1-.25-.06A.44.44,0,0,1,10,3.18.53.53,0,0,1,10,3a.59.59,0,0,1,0-.11.39.39,0,0,0,0-.18.42.42,0,0,0-.17-.18.54.54,0,0,0-.25-.06l-.22,0a.55.55,0,0,0-.26.23A.9.9,0,0,0,8.94,3a2.64,2.64,0,0,0-.07.3c0,.1,0,.2,0,.3v.27a2.37,2.37,0,0,0,.1.79,1.13,1.13,0,0,0,.29.45.79.79,0,0,0,.51.18,1,1,0,0,0,.4-.1A1.12,1.12,0,0,0,10.45,5l.1-.13.13-.19Z"/><path d="M12.53,3.93a2.29,2.29,0,0,0,0,.39,1,1,0,0,1,0,.15,1.44,1.44,0,0,0,.07.23,2.36,2.36,0,0,0,.15.25.63.63,0,0,0,.22.21.61.61,0,0,0,.18.08.74.74,0,0,0,.28,0,1,1,0,0,0,.4-.08,1.41,1.41,0,0,0,.3-.19,1,1,0,0,0,.21-.21l.12-.15.44.25a.52.52,0,0,0-.07.11c0,.07-.09.12-.13.18a2.06,2.06,0,0,1-.21.21,1.38,1.38,0,0,1-.32.22,2,2,0,0,1-.44.18,2.47,2.47,0,0,1-.57.07H13a1.72,1.72,0,0,1-.34-.07,2.39,2.39,0,0,1-.38-.16,1.53,1.53,0,0,1-.37-.31,2,2,0,0,1-.16-.2,1.39,1.39,0,0,1-.16-.3,2.69,2.69,0,0,1-.13-.4,2.46,2.46,0,0,1,0-.49c0-.07,0-.17,0-.31a1.87,1.87,0,0,1,.79-1.32A1.87,1.87,0,0,1,13.28,2l.36,0a1.58,1.58,0,0,1,.52.19,1.42,1.42,0,0,1,.5.43,1.8,1.8,0,0,1,.25.5,2.18,2.18,0,0,1,.09.46c0,.15,0,.25,0,.32Zm1.39-.39V3.4c0-.06,0-.13,0-.22a1.29,1.29,0,0,0-.06-.25.65.65,0,0,0-.11-.22.93.93,0,0,0-.18-.16.57.57,0,0,0-.27-.06.69.69,0,0,0-.35.11.86.86,0,0,0-.24.26,1.13,1.13,0,0,0-.13.33c0,.11,0,.23,0,.35Z"/><path d="M19.83,5.76h-2V5.35h.25a.17.17,0,0,0,.12-.09.78.78,0,0,0,0-.16V3.45a.34.34,0,0,1,0-.1V3.27s0-.1,0-.19A.43.43,0,0,0,18,2.84l-.12,0a.6.6,0,0,0-.2,0,.74.74,0,0,0-.36.09l-.31.21v2.1c0,.1,0,.15.11.16l.32,0v.42h-2V5.33h.4A.2.2,0,0,0,16,5.27a.16.16,0,0,0,0-.11A.92.92,0,0,0,16,5V3a.45.45,0,0,0,0-.11.25.25,0,0,0,0-.1.24.24,0,0,0-.1-.1l-.13-.05h-.28V2.26l.4,0,.4-.05.35-.06L17,2.05A.65.65,0,0,1,17,2.2a.76.76,0,0,1,0,.11.5.5,0,0,0,0,.12s0,.09,0,.15a2.42,2.42,0,0,1,.51-.41,1.41,1.41,0,0,1,1-.09,1.3,1.3,0,0,1,.29.16,1.17,1.17,0,0,1,.19.2,1.13,1.13,0,0,1,.09.2,1.09,1.09,0,0,1,.07.3V5.1s0,.06,0,.09a.1.1,0,0,0,0,.09.4.4,0,0,0,.19,0h.31Z"/><path d="M23.76,4.81a1.34,1.34,0,0,0-.12.24,1,1,0,0,1-.16.21,1.37,1.37,0,0,1-.17.19,2.43,2.43,0,0,1-.29.21,3.52,3.52,0,0,1-.39.16,2,2,0,0,1-.5.06,2.17,2.17,0,0,1-.45,0,1.8,1.8,0,0,1-.63-.28l-.24-.2A1.19,1.19,0,0,1,20.56,5a1.63,1.63,0,0,1-.2-.44,2.15,2.15,0,0,1-.07-.6,2.2,2.2,0,0,1,.13-.78,1.83,1.83,0,0,1,.38-.63,1.63,1.63,0,0,1,.6-.42A1.86,1.86,0,0,1,22.19,2h.17l.29,0,.34.12a1.22,1.22,0,0,1,.32.24,1,1,0,0,1,.11.15.56.56,0,0,1,.08.3.49.49,0,0,1-.06.25.64.64,0,0,1-.13.15.43.43,0,0,1-.16.07.37.37,0,0,1-.13,0,.42.42,0,0,1-.37-.17.25.25,0,0,1,0-.16V2.91a.57.57,0,0,0,0-.18.45.45,0,0,0-.18-.18.48.48,0,0,0-.24-.06,1.15,1.15,0,0,0-.22,0,.57.57,0,0,0-.27.23,1.33,1.33,0,0,0-.11.24,2.63,2.63,0,0,0-.08.3c0,.1,0,.2,0,.3a2.62,2.62,0,0,0,0,.27,2.33,2.33,0,0,0,.11.79,1,1,0,0,0,.29.45.79.79,0,0,0,.51.18,1,1,0,0,0,.4-.1A1.28,1.28,0,0,0,23.07,5l.09-.13.13-.19Z"/><path d="M25.15,3.93a2.29,2.29,0,0,0,0,.39s0,.08,0,.15a1.6,1.6,0,0,0,.08.23,1.28,1.28,0,0,0,.14.25.77.77,0,0,0,.23.21.54.54,0,0,0,.17.08.79.79,0,0,0,.29,0,1,1,0,0,0,.39-.08A1.5,1.5,0,0,0,26.81,5,1,1,0,0,0,27,4.81l.12-.15.44.25s0,0-.08.11a1.18,1.18,0,0,1-.13.18l-.2.21a1.63,1.63,0,0,1-.32.22,2.24,2.24,0,0,1-.44.18,2.47,2.47,0,0,1-.57.07h-.23a1.58,1.58,0,0,1-.34-.07,2.39,2.39,0,0,1-.38-.16,1.36,1.36,0,0,1-.37-.31,2,2,0,0,1-.16-.2,1.39,1.39,0,0,1-.17-.3,2.75,2.75,0,0,1-.12-.4A2.46,2.46,0,0,1,24,3.94a2,2,0,0,1,0-.31,1.76,1.76,0,0,1,.1-.45A1.8,1.8,0,0,1,25.89,2l.36,0a1.62,1.62,0,0,1,.53.19,1.52,1.52,0,0,1,.5.43,2.12,2.12,0,0,1,.25.5,2.18,2.18,0,0,1,.09.46c0,.15,0,.25,0,.32Zm1.38-.39V3.4a1.86,1.86,0,0,0,0-.22l-.06-.25a.94.94,0,0,0-.12-.22.71.71,0,0,0-.18-.16.53.53,0,0,0-.26-.06.66.66,0,0,0-.35.11.75.75,0,0,0-.24.26.91.91,0,0,0-.13.33c0,.11,0,.23,0,.35Z"/><path d="M31.88,4.93a.78.78,0,0,0,0,.24c0,.06.09.1.21.11h.32v.4l-.39,0-.4,0-.29,0-.3.05c0-.07-.06-.13-.08-.19a1.53,1.53,0,0,1-.06-.29l-.07.07a1.36,1.36,0,0,1-.12.12,2.09,2.09,0,0,1-.33.19,1.23,1.23,0,0,1-.59.12l-.29,0a1.3,1.3,0,0,1-.43-.15,1.61,1.61,0,0,1-.29-.21,1.4,1.4,0,0,1-.29-.34,2.59,2.59,0,0,1-.21-.5A2.29,2.29,0,0,1,28.2,4c0-.07,0-.18,0-.32a2.26,2.26,0,0,1,.11-.47,1.73,1.73,0,0,1,.24-.47,1.51,1.51,0,0,1,.34-.37,1.26,1.26,0,0,1,.44-.24A1.44,1.44,0,0,1,29.86,2a1.25,1.25,0,0,1,.35,0,1.69,1.69,0,0,1,.27.1l.2.12.14.13V1c0-.13-.05-.22-.12-.25A1.22,1.22,0,0,0,30.28.7V.28l.34,0,.32,0,.38-.08L31.88,0Zm-1.05-2a1.5,1.5,0,0,0-.23-.17.71.71,0,0,0-.41-.1l-.15,0a.74.74,0,0,0-.22.08.84.84,0,0,0-.28.31,1.22,1.22,0,0,0-.14.39,1.63,1.63,0,0,0,0,.35V4s0,.15,0,.28a1.16,1.16,0,0,0,.1.42,1.18,1.18,0,0,0,.27.4.64.64,0,0,0,.44.17.82.82,0,0,0,.44-.13A.77.77,0,0,0,30.74,5l.09-.1Z"/><path d="M36.71,3.25v.58H35V3.25Z"/><path d="M42.19.28h.07l.15,0,.17,0,.17,0a1,1,0,0,1,.6.46,1.28,1.28,0,0,1,.22.73s0,.09,0,.15,0,.13,0,.21l-.1.24a1.33,1.33,0,0,1-.19.24,1.25,1.25,0,0,1-.19.15l-.14.08-.19.09a1.74,1.74,0,0,1-.3.08l.15,0,.15,0a1.58,1.58,0,0,1,.85.49,1.31,1.31,0,0,1,.31.92,1.11,1.11,0,0,1,0,.23,1.43,1.43,0,0,1-.07.32,2.23,2.23,0,0,1-.17.35,1.38,1.38,0,0,1-.9.56l-.63,0H39.17V5.35h.45l.1,0a.19.19,0,0,0,.12-.09.24.24,0,0,0,.06-.11.36.36,0,0,0,0-.1s0,0,0-.07V1.16c0-.08,0-.13,0-.17s0-.08,0-.11a.25.25,0,0,0-.18-.15l-.23,0h-.32V.28ZM41.08,3.06V4.77a.37.37,0,0,0,0,.11.34.34,0,0,0,0,.1.32.32,0,0,0,.17.29.71.71,0,0,0,.34.07h.32a.74.74,0,0,0,.31-.13.81.81,0,0,0,.26-.35,1.8,1.8,0,0,0,.1-.65,1.41,1.41,0,0,0-.09-.57.89.89,0,0,0-.21-.32A.8.8,0,0,0,42,3.13l-.2-.06h-.75Zm0-.42h.45l.27,0a.64.64,0,0,0,.24-.11l0,0,0-.05a1,1,0,0,0,.16-.3,1.73,1.73,0,0,0,.06-.49V1.52a.65.65,0,0,0,0-.19,1,1,0,0,0-.06-.23.56.56,0,0,0-.14-.2.67.67,0,0,0-.37-.17l-.41,0H41.1Z"/><path d="M46.4,2h.18l.26,0,.32.07a1.43,1.43,0,0,1,.34.14,1.56,1.56,0,0,1,.17.12.35.35,0,0,1,.11.09.75.75,0,0,1,.15.13,1.11,1.11,0,0,1,.19.23,1.73,1.73,0,0,1,.2.41,1.91,1.91,0,0,1,.1.68c0,.07,0,.2,0,.38a2.07,2.07,0,0,1-.16.56,1.66,1.66,0,0,1-.43.58,2,2,0,0,1-.51.31,1.68,1.68,0,0,1-.5.13,2.51,2.51,0,0,1-.35,0h-.31a1.55,1.55,0,0,1-.47-.12,1.42,1.42,0,0,1-.34-.18A1.94,1.94,0,0,1,45,5.23a2,2,0,0,1-.29-.52A2,2,0,0,1,44.54,4c0-.06,0-.17,0-.32a2.06,2.06,0,0,1,.13-.5,1.66,1.66,0,0,1,.67-.84A2.08,2.08,0,0,1,46.4,2Zm.06.52a.69.69,0,0,0-.26,0,.64.64,0,0,0-.3.26,1.76,1.76,0,0,0-.16.42,3.13,3.13,0,0,0-.06.67,3.43,3.43,0,0,0,.08.79,1,1,0,0,0,.25.46.83.83,0,0,0,.17.12.62.62,0,0,0,.33.07l.19,0A.44.44,0,0,0,47,5.18a1.08,1.08,0,0,0,.23-.47,3.09,3.09,0,0,0,.09-.8C47.29,3,47,2.49,46.46,2.52Z"/><path d="M53.31,5.76h-2V5.35h.26c.06,0,.1,0,.11-.09a.78.78,0,0,0,0-.16V3.45a.34.34,0,0,1,0-.1V3.27s0-.1,0-.19a.39.39,0,0,0-.17-.24l-.12,0a.54.54,0,0,0-.19,0,.69.69,0,0,0-.36.09l-.32.21v2.1c0,.1,0,.15.12.16l.32,0v.42h-2V5.33h.41a.18.18,0,0,0,.08-.05.23.23,0,0,0,0-.11V2.92a.62.62,0,0,0,0-.1.19.19,0,0,0-.1-.1l-.13-.05h-.28V2.26l.4,0,.4-.05.35-.06.35-.06a1.31,1.31,0,0,0,.05.15l0,.11s0,.08,0,.12,0,.09,0,.15a2.42,2.42,0,0,1,.51-.41A1.28,1.28,0,0,1,51.71,2a1.33,1.33,0,0,1,.42.06,1.57,1.57,0,0,1,.29.16,1.62,1.62,0,0,1,.18.2,1.24,1.24,0,0,1,.1.2,1.59,1.59,0,0,1,.06.3c0,.1,0,.21,0,.32V5.19a.13.13,0,0,0,0,.09.4.4,0,0,0,.19,0h.31Z"/><path d="M57.43,4.93a1.19,1.19,0,0,0,0,.24c0,.06.09.1.2.11H58v.4l-.39,0-.39,0-.29,0-.3.05c0-.07-.06-.13-.09-.19a1.53,1.53,0,0,1-.06-.29.45.45,0,0,1-.07.07l-.11.12a3.78,3.78,0,0,1-.33.19,1.26,1.26,0,0,1-.59.12l-.29,0a1.3,1.3,0,0,1-.43-.15,2.09,2.09,0,0,1-.3-.21,1.64,1.64,0,0,1-.28-.34,1.75,1.75,0,0,1-.21-.5A2.29,2.29,0,0,1,53.76,4c0-.07,0-.18,0-.32a2.2,2.2,0,0,1,.1-.47,2.58,2.58,0,0,1,.24-.47,1.55,1.55,0,0,1,.35-.37,1.26,1.26,0,0,1,.44-.24A1.44,1.44,0,0,1,55.42,2a1.29,1.29,0,0,1,.35,0,1.69,1.69,0,0,1,.27.1l.19.12.15.13V1c0-.13-.05-.22-.12-.25A1.22,1.22,0,0,0,55.84.7V.28l.34,0,.32,0,.38-.08L57.43,0Zm-1-2a2.29,2.29,0,0,0-.23-.17.73.73,0,0,0-.41-.1l-.15,0a.65.65,0,0,0-.22.08.76.76,0,0,0-.28.31,1.52,1.52,0,0,0-.19.74,1.49,1.49,0,0,0,0,.17s0,.15,0,.28a1.45,1.45,0,0,0,.11.42,1,1,0,0,0,.27.4.64.64,0,0,0,.44.17.69.69,0,0,0,.25,0,.51.51,0,0,0,.18-.09A.87.87,0,0,0,56.3,5l.09-.1Z"/><path d="M59.6,3.93a2.29,2.29,0,0,0,0,.39s0,.08,0,.15a.84.84,0,0,0,.07.23,2.18,2.18,0,0,0,.14.25.77.77,0,0,0,.23.21.51.51,0,0,0,.18.08.74.74,0,0,0,.28,0,1,1,0,0,0,.4-.08,1.41,1.41,0,0,0,.3-.19,1,1,0,0,0,.21-.21l.12-.15.44.25A.52.52,0,0,0,62,5c0,.07-.09.12-.13.18s-.12.13-.21.21a1.38,1.38,0,0,1-.32.22,2,2,0,0,1-.44.18,2.47,2.47,0,0,1-.57.07h-.23a1.72,1.72,0,0,1-.34-.07,2.39,2.39,0,0,1-.38-.16A1.53,1.53,0,0,1,59,5.33a2,2,0,0,1-.16-.2,1.39,1.39,0,0,1-.16-.3,2.69,2.69,0,0,1-.13-.4,2.46,2.46,0,0,1-.05-.49c0-.07,0-.17,0-.31a1.87,1.87,0,0,1,.79-1.32A1.86,1.86,0,0,1,60.34,2l.37,0a1.58,1.58,0,0,1,.52.19,1.42,1.42,0,0,1,.5.43,1.8,1.8,0,0,1,.25.5,2.18,2.18,0,0,1,.09.46c0,.15,0,.25,0,.32ZM61,3.54V3.4c0-.06,0-.13,0-.22a1.29,1.29,0,0,0-.06-.25.91.91,0,0,0-.11-.22.93.93,0,0,0-.18-.16.57.57,0,0,0-.27-.06A.69.69,0,0,0,60,2.6a.75.75,0,0,0-.24.26.91.91,0,0,0-.13.33c0,.11,0,.23,0,.35Z"/><path d="M66.33,4.93a.75.75,0,0,0,0,.24c0,.06.09.1.2.11h.32v.4l-.39,0-.39,0-.3,0-.29.05a1.07,1.07,0,0,1-.09-.19,1.53,1.53,0,0,1-.06-.29l-.07.07-.12.12a2.09,2.09,0,0,1-.33.19,1.19,1.19,0,0,1-.58.12l-.3,0a1.38,1.38,0,0,1-.43-.15,1.61,1.61,0,0,1-.29-.21A1.38,1.38,0,0,1,63,5.15a2.09,2.09,0,0,1-.22-.5A2.7,2.7,0,0,1,62.66,4a2.14,2.14,0,0,1,0-.32,1.72,1.72,0,0,1,.1-.47A1.73,1.73,0,0,1,63,2.71a1.38,1.38,0,0,1,.35-.37,1.22,1.22,0,0,1,.43-.24A1.44,1.44,0,0,1,64.31,2a1.25,1.25,0,0,1,.35,0,1.18,1.18,0,0,1,.27.1,1.17,1.17,0,0,1,.2.12l.14.13V1c0-.13,0-.22-.12-.25A1.19,1.19,0,0,0,64.74.7V.28l.34,0,.31,0,.39-.08L66.33,0Zm-1-2a1.3,1.3,0,0,0-.22-.17.76.76,0,0,0-.41-.1l-.16,0a.6.6,0,0,0-.21.08.78.78,0,0,0-.29.31,1.53,1.53,0,0,0-.14.39,1.63,1.63,0,0,0-.05.35V4s0,.15,0,.28a1.42,1.42,0,0,0,.1.42,1.18,1.18,0,0,0,.27.4.66.66,0,0,0,.45.17.61.61,0,0,0,.24,0,.56.56,0,0,0,.19-.09A.87.87,0,0,0,65.2,5l.08-.1Z"/><path d="M71.17,3.25v.58H69.4V3.25Z"/><path d="M76.34.28V.7l-.43,0a.42.42,0,0,0-.26.11.23.23,0,0,0-.06.12.61.61,0,0,0,0,.13V4.84a2,2,0,0,0,0,.25.25.25,0,0,0,.15.19.39.39,0,0,0,.23.06l.37,0v.4H73.6V5.35h.15l.34,0a.39.39,0,0,0,.2-.11.25.25,0,0,0,.07-.12.88.88,0,0,0,0-.2V1.08c0-.08,0-.14,0-.19a.23.23,0,0,0-.1-.12.38.38,0,0,0-.18-.06l-.28,0h-.18V.28Z"/><path d="M81,5.76H79V5.35h.26c.06,0,.1,0,.11-.09a.78.78,0,0,0,0-.16V3.45a.34.34,0,0,1,0-.1V3.27s0-.1,0-.19a.39.39,0,0,0-.17-.24l-.12,0a.54.54,0,0,0-.19,0,.69.69,0,0,0-.36.09l-.32.21v2.1c0,.1,0,.15.12.16l.32,0v.42h-2V5.33H77a.18.18,0,0,0,.08-.05.16.16,0,0,0,0-.11V2.92a.62.62,0,0,0,0-.1.19.19,0,0,0-.1-.1l-.13-.05H76.6V2.26l.4,0,.4-.05.35-.06.35-.06.05.15,0,.11a.5.5,0,0,1,0,.12l0,.15a2.42,2.42,0,0,1,.51-.41A1.28,1.28,0,0,1,79.37,2a1.33,1.33,0,0,1,.42.06,1.57,1.57,0,0,1,.29.16,1.08,1.08,0,0,1,.18.2,1.24,1.24,0,0,1,.1.2,1.59,1.59,0,0,1,.06.3c0,.1,0,.21,0,.32V5.19a.13.13,0,0,0,0,.09.4.4,0,0,0,.19,0H81Z"/><path d="M83.43,2.11h.41a5.78,5.78,0,0,0,0,.58c0,.12,0,.23,0,.34s0,.23,0,.34h-.42c0-.07,0-.13,0-.17l0-.16a.81.81,0,0,0-.15-.26L83,2.63a.6.6,0,0,0-.19-.08l-.16,0-.16,0a.36.36,0,0,0-.21.14l0,.07a.21.21,0,0,0,0,.12.31.31,0,0,0,.09.2l.18.12.45.24.44.25.18.12a1,1,0,0,1,.2.2,1.17,1.17,0,0,1,.17.29,1,1,0,0,1,.07.41A.87.87,0,0,1,84,5c0,.08,0,.14-.07.18a1,1,0,0,1-.46.51,1.42,1.42,0,0,1-.68.16,1.29,1.29,0,0,1-.47-.07A1.55,1.55,0,0,1,82,5.68l-.1-.07-.09-.07,0,.19h-.43q0-.42,0-.84l0-.42h.45a4,4,0,0,0,.12.41.76.76,0,0,0,.68.44.56.56,0,0,0,.33-.1.38.38,0,0,0,.14-.31V4.84a.64.64,0,0,1,0-.09.54.54,0,0,0-.22-.23l-.29-.15-.15-.08-.14-.08-.09,0a.24.24,0,0,1-.08-.06L81.88,4a1.33,1.33,0,0,1-.22-.2,1.1,1.1,0,0,1-.27-.73V2.93a.9.9,0,0,1,0-.19.9.9,0,0,1,.41-.55A1.17,1.17,0,0,1,82.52,2h.12l.17,0,.25.08a2.72,2.72,0,0,1,.32.17Z"/><path d="M85.8,2.15V4.43a2,2,0,0,0,0,.34.41.41,0,0,0,.18.28l.15.06a.41.41,0,0,0,.16,0,.88.88,0,0,0,.24,0L86.74,5l.14-.1.1-.07V2.94s0-.06,0-.09a.26.26,0,0,0-.23-.25l-.3,0V2.15H88V5a.33.33,0,0,0,0,.17.2.2,0,0,0,.09.09l.13,0h.27V5.7l-.49,0-.36,0-.29,0-.28,0a.67.67,0,0,1-.06-.12l0-.1a.32.32,0,0,1,0-.14s0-.12,0-.2a.27.27,0,0,0-.07.08l-.07.07-.13.12a1.4,1.4,0,0,1-.22.14,1.1,1.1,0,0,1-.29.12,1.36,1.36,0,0,1-.36.05,1.39,1.39,0,0,1-.33-.05,1,1,0,0,1-.3-.13A.91.91,0,0,1,85,5.48a1.08,1.08,0,0,1-.13-.29,1.91,1.91,0,0,1-.06-.33c0-.12,0-.24,0-.35V3.06a.49.49,0,0,1,0-.12.52.52,0,0,0,0-.11.24.24,0,0,0-.12-.21.9.9,0,0,0-.34-.05V2.15Z"/><path d="M90.49,5.12v0a.07.07,0,0,0,0,0c0,.07.06.11.14.13h.44v.42H88.9V5.34h.39a.15.15,0,0,0,.09-.06s0-.1,0-.2V3s0-.09,0-.13a.23.23,0,0,0-.17-.16,1.19,1.19,0,0,0-.35,0V2.24l.29,0,.3,0,.35,0,.49-.1a1.08,1.08,0,0,1,.07.18.83.83,0,0,1,0,.15.61.61,0,0,1,0,.15s0,.11,0,.19c.06-.08.13-.15.2-.23a2.09,2.09,0,0,1,.22-.2,1.35,1.35,0,0,1,.26-.15,1,1,0,0,1,.3,0,.62.62,0,0,1,.38.12.86.86,0,0,1,.15.17.67.67,0,0,1,.06.32.69.69,0,0,1-.12.39.4.4,0,0,1-.35.17l-.16,0a.28.28,0,0,1-.16-.16A1.15,1.15,0,0,1,91.2,3,.18.18,0,0,0,91,2.86a.4.4,0,0,0-.24.09,1.6,1.6,0,0,0-.29.26Z"/><path d="M93.4,3.93a2.29,2.29,0,0,0,0,.39,1,1,0,0,1,0,.15,1.44,1.44,0,0,0,.07.23,2.36,2.36,0,0,0,.15.25.73.73,0,0,0,.22.21.61.61,0,0,0,.18.08.74.74,0,0,0,.28,0,1,1,0,0,0,.4-.08A1.82,1.82,0,0,0,95.07,5a2.08,2.08,0,0,0,.21-.21l.12-.15.43.25L95.76,5c0,.07-.09.12-.13.18a2.06,2.06,0,0,1-.21.21,1.38,1.38,0,0,1-.32.22,2,2,0,0,1-.44.18,2.47,2.47,0,0,1-.57.07h-.23a1.72,1.72,0,0,1-.34-.07,2.39,2.39,0,0,1-.38-.16,1.74,1.74,0,0,1-.37-.31,2,2,0,0,1-.16-.2,1.39,1.39,0,0,1-.16-.3,1.9,1.9,0,0,1-.12-.4,1.88,1.88,0,0,1-.06-.49c0-.07,0-.17,0-.31a1.87,1.87,0,0,1,.79-1.32A1.87,1.87,0,0,1,94.15,2l.36,0a1.58,1.58,0,0,1,.52.19,1.34,1.34,0,0,1,.5.43,1.8,1.8,0,0,1,.25.5,1.38,1.38,0,0,1,.09.46c0,.15,0,.25,0,.32Zm1.39-.39V3.4c0-.06,0-.13,0-.22a1.29,1.29,0,0,0-.06-.25.65.65,0,0,0-.11-.22.93.93,0,0,0-.18-.16.57.57,0,0,0-.27-.06.69.69,0,0,0-.35.11,1,1,0,0,0-.24.26.88.88,0,0,0-.12.33c0,.11,0,.23,0,.35Z"/><path d="M100.13,4.93a1.19,1.19,0,0,0,0,.24c0,.06.09.1.2.11h.32v.4l-.39,0-.39,0-.3,0-.29.05a1.07,1.07,0,0,1-.09-.19,1.53,1.53,0,0,1-.06-.29.45.45,0,0,1-.07.07L99,5.57a2.09,2.09,0,0,1-.33.19,1.19,1.19,0,0,1-.58.12l-.3,0a1.34,1.34,0,0,1-.42-.15,1.49,1.49,0,0,1-.58-.55,2.09,2.09,0,0,1-.22-.5A2.7,2.7,0,0,1,96.46,4c0-.07,0-.18,0-.32a2.2,2.2,0,0,1,.1-.47,1.73,1.73,0,0,1,.24-.47,1.55,1.55,0,0,1,.35-.37,1.22,1.22,0,0,1,.43-.24A1.46,1.46,0,0,1,98.12,2a1.22,1.22,0,0,1,.34,0,1.18,1.18,0,0,1,.27.1l.2.12.15.13V1c0-.13-.06-.22-.13-.25A1.15,1.15,0,0,0,98.54.7V.28l.34,0,.31,0,.39-.08.54-.13Zm-1-2a1.3,1.3,0,0,0-.22-.17.76.76,0,0,0-.41-.1l-.15,0a.58.58,0,0,0-.22.08.86.86,0,0,0-.29.31,2,2,0,0,0-.14.39,2.67,2.67,0,0,0-.05.35V4s0,.15,0,.28a1.19,1.19,0,0,0,.11.42,1,1,0,0,0,.27.4.64.64,0,0,0,.44.17.61.61,0,0,0,.24,0,.48.48,0,0,0,.19-.09A.87.87,0,0,0,99,5l.08-.1Z"/></g></g></svg>